<?xml version="1.0" standalone="no"?>
<!DOCTYPE svg PUBLIC "-//W3C//DTD SVG 1.1//EN" "http://www.w3.org/Graphics/SVG/1.1/DTD/svg11.dtd" >
<svg xmlns="http://www.w3.org/2000/svg">
<metadata>
This is a custom SVG webfont generated by Font Squirrel.
Copyright   : Emoticons fonts  copyright 2000 George Edward Purdygeorgepurdyhotmailcomhttpxabunglecom
Designer    : George Edward Purdy
Foundry     : George Edward Purdy
</metadata>
<defs>
<font id="Emoticonsstandard" horiz-adv-x="1777" >
<font-face units-per-em="2048" ascent="1638" descent="-410" />
<missing-glyph horiz-adv-x="1024" />
<glyph unicode=" "  horiz-adv-x="1024" />
<glyph unicode="&#x09;" horiz-adv-x="1024" />
<glyph unicode="&#xa0;" horiz-adv-x="1024" />
<glyph unicode="#" d="M0 819q0 168 64.5 317.5t176 261t260 176t318.5 64.5q168 0 317.5 -64.5t261 -176t176 -261t64.5 -317.5q0 -170 -64.5 -318.5t-176 -260t-261 -176t-317.5 -64.5q-311 0 -540 205h-7v4q-272 241 -272 610zM102 819q0 -297 205 -502v400h1024v-400q205 205 205 502 q0 147 -57.5 277.5t-154.5 227.5t-227 154.5t-278 57.5q-145 0 -275 -56.5t-228.5 -153.5t-156 -227t-57.5 -280zM395 307h117v103h-117v-103zM395 512h117v102h-117v-102zM410 973q0 61 44 106t105 47l-131 134l72 71l217 -217l-39 -39q39 -45 39 -102q0 -63 -45 -108.5 t-109 -45.5q-63 0 -108 45.5t-45 108.5zM451 205q170 -102 368 -103q199 0 369 103h-737zM614 307h170v103h-170v-103zM614 512h170v102h-170v-102zM872 307h152v103h-152v-103zM872 512h152v102h-152v-102zM922 973q0 63 47 110l-29 31l217 217l72 -71l-133 -136 q55 -6 94 -50t39 -101q0 -63 -45 -108.5t-109 -45.5q-63 0 -108 45.5t-45 108.5zM1126 307h117v103h-117v-103zM1126 512h117v102h-117v-102z" />
<glyph unicode="%" horiz-adv-x="1761" d="M0 815q0 119 34 229.5t95 207t148.5 173t193.5 127.5l-47 47l217 216l72 -72l-156 -156q135 41 258 41q156 0 285 -51l-166 166l72 72l217 -216l-54 -51q104 -49 189.5 -127t145 -175t92 -207.5t32.5 -223.5q0 -166 -64.5 -314.5t-175 -260t-258 -176t-315.5 -64.5 q-207 0 -395 102h-12v7q-94 55 -170 130.5t-128.5 166t-81 194.5t-28.5 215zM102 815q0 -174 81 -329.5t225 -256.5v322q-203 168 -205 416h123q0 -96 41 -177t108.5 -141.5t155.5 -94.5t184 -34t184 35t156 94.5t108 141t40 176.5h122q0 -250 -202 -416v-322 q141 100 223 256t82 330q0 145 -56.5 275.5t-153.5 227.5t-227 153.5t-276 56.5q-147 0 -276 -56.5t-226.5 -153.5t-154 -227.5t-56.5 -275.5zM510 203h215v211q-59 8 -112.5 25.5t-102.5 43.5v-280zM510 1069q0 63 45 108.5t107 45.5q63 0 108 -45t45 -109 q0 -63 -45 -108.5t-108 -45.5q-61 0 -106.5 45.5t-45.5 108.5zM815 967q0 63 45 108t107 45q63 0 108 -45t45 -108q0 -61 -45 -106.5t-108 -45.5q-61 0 -106.5 45.5t-45.5 106.5zM838 102q188 6 344 101h-344v-101zM926 305h194v178q-47 -27 -95 -42t-99 -23v-113z" />
<glyph unicode="&#x26;" horiz-adv-x="888" />
<glyph unicode="(" horiz-adv-x="1779" d="M0 819q0 168 64.5 317.5t176 261t260 176t318.5 64.5q168 0 317.5 -64.5t261 -176t176 -261t64.5 -317.5q0 -170 -64.5 -318.5t-176 -260t-261 -176t-317.5 -64.5q-170 0 -318.5 64.5t-260 176t-176 260t-64.5 318.5zM102 819q0 -297 205 -502q2 104 44 195.5t111.5 159 t162 107.5t194.5 40t194.5 -40t162 -107.5t111.5 -158.5t44 -196q205 205 205 502q0 147 -57.5 277.5t-154.5 227.5t-227 154.5t-278 57.5q-145 0 -275 -56.5t-228.5 -153.5t-156 -227t-57.5 -280zM317 307q205 -205 502 -205t502 205h-92q0 84 -33 159t-88 130t-130 88 t-159 33t-158.5 -33t-130 -88t-88 -130t-32.5 -159h-93zM410 973q0 63 45 108t108 45t108.5 -45t45.5 -108t-45 -108.5t-109 -45.5q-63 0 -108 45.5t-45 108.5zM922 973q0 63 45 108t108 45t108.5 -45t45.5 -108t-45 -108.5t-109 -45.5q-63 0 -108 45.5t-45 108.5z" />
<glyph unicode=")" horiz-adv-x="1779" d="M0 819q0 168 64.5 317.5t176 261t260 176t318.5 64.5q168 0 317.5 -64.5t261 -176t176 -261t64.5 -317.5q0 -170 -64.5 -318.5t-176 -260t-261 -176t-317.5 -64.5q-170 0 -318.5 64.5t-260 176t-176 260t-64.5 318.5zM102 819q0 -147 56.5 -278t154 -228.5t228.5 -154 t278 -56.5q150 0 280 57.5t227 156t153.5 228.5t56.5 275q0 147 -57.5 277.5t-154.5 227.5t-227 154.5t-278 57.5q-145 0 -275 -56.5t-228.5 -153.5t-156 -227t-57.5 -280zM307 819h103q0 -86 31.5 -160.5t87 -130t130 -87t160.5 -31.5q84 0 159 32.5t130 88t88 130 t33 158.5h102q0 -104 -41 -197.5t-110.5 -163t-162.5 -110.5t-198 -41q-106 0 -199.5 40t-163 109.5t-109.5 163t-40 199.5zM410 973q0 63 45 108t108 45t108.5 -45t45.5 -108t-45 -108.5t-109 -45.5q-63 0 -108 45.5t-45 108.5zM922 973q0 63 45 108t108 45t108.5 -45 t45.5 -108t-45 -108.5t-109 -45.5q-63 0 -108 45.5t-45 108.5z" />
<glyph unicode="," d="M0 819q0 168 64.5 317.5t176 261t260 176t318.5 64.5q168 0 317.5 -64.5t261 -176t176 -261t64.5 -317.5q0 -170 -64.5 -318.5t-176 -260t-261 -176t-317.5 -64.5q-170 0 -318.5 64.5t-260 176t-176 260t-64.5 318.5zM307 819q0 -106 40 -199.5t109.5 -163t163 -109.5 t199.5 -40q88 0 187 35l-664 664q-35 -99 -35 -187zM633 1296l663 -663q35 98 35 186q0 104 -41 196.5t-111.5 163t-162.5 111.5t-197 41q-88 0 -186 -35z" />
<glyph unicode="." d="M0 819q0 168 64.5 317.5t176 261t260 176t318.5 64.5q168 0 317.5 -64.5t261 -176t176 -261t64.5 -317.5q0 -170 -64.5 -318.5t-176 -260t-261 -176t-317.5 -64.5q-170 0 -318.5 64.5t-260 176t-176 260t-64.5 318.5zM307 819q0 -106 40 -199.5t109.5 -163t163 -109.5 t199.5 -40q104 0 197.5 41t163 110.5t110.5 163t41 197.5t-41 196.5t-111.5 163t-162.5 111.5t-197 41q-104 0 -197.5 -41t-163 -110.5t-110.5 -163t-41 -197.5zM614 819q0 43 15.5 80t43 64.5t65.5 44t81 16.5q86 0 145.5 -59.5t59.5 -145.5q0 -43 -16.5 -81t-44 -65.5 t-64.5 -43t-80 -15.5q-88 0 -146.5 58.5t-58.5 146.5z" />
<glyph unicode="/" horiz-adv-x="1779" d="M0 819q0 168 64.5 317.5t176 261t260 176t318.5 64.5q168 0 317.5 -64.5t261 -176t176 -261t64.5 -317.5q0 -170 -64.5 -318.5t-176 -260t-261 -176t-317.5 -64.5q-170 0 -318.5 64.5t-260 176t-176 260t-64.5 318.5zM102 819q0 -147 56.5 -278t154 -228.5t228.5 -154 t278 -56.5q150 0 280 57.5t227 156t153.5 228.5t56.5 275q0 147 -57.5 277.5t-154.5 227.5t-227 154.5t-278 57.5q-145 0 -275 -56.5t-228.5 -153.5t-156 -227t-57.5 -280zM410 629l51 88l708 -410l-51 -88zM410 973q0 63 45 108t108 45t108.5 -45t45.5 -108t-45 -108.5 t-109 -45.5q-63 0 -108 45.5t-45 108.5zM922 973q0 63 45 108t108 45t108.5 -45t45.5 -108t-45 -108.5t-109 -45.5q-63 0 -108 45.5t-45 108.5z" />
<glyph unicode="0" d="M0 819q0 168 64.5 317.5t176 261t260 176t318.5 64.5q168 0 317.5 -64.5t261 -176t176 -261t64.5 -317.5q0 -170 -64.5 -318.5t-176 -260t-261 -176t-317.5 -64.5q-170 0 -318.5 64.5t-260 176t-176 260t-64.5 318.5zM102 819q0 -147 56.5 -278t154 -228.5t228.5 -154 t278 -56.5q150 0 280 57.5t227 156t153.5 228.5t56.5 275q0 147 -57.5 277.5t-154.5 227.5t-227 154.5t-278 57.5q-145 0 -275 -56.5t-228.5 -153.5t-156 -227t-57.5 -280z" />
<glyph unicode="1" d="M0 819q0 168 64.5 317.5t176 261t260 176t318.5 64.5q168 0 317.5 -64.5t261 -176t176 -261t64.5 -317.5q0 -170 -64.5 -318.5t-176 -260t-261 -176t-317.5 -64.5q-170 0 -318.5 64.5t-260 176t-176 260t-64.5 318.5zM102 819q0 -147 56.5 -278t154 -228.5t228.5 -154 t278 -56.5q150 0 280 57.5t227 156t153.5 228.5t56.5 275q0 147 -57.5 277.5t-154.5 227.5t-227 154.5t-278 57.5q-145 0 -275 -56.5t-228.5 -153.5t-156 -227t-57.5 -280zM307 717h1024q0 -104 -41 -197.5t-110.5 -163t-162.5 -110.5t-198 -41q-106 0 -199.5 40t-163 109.5 t-109.5 163t-40 199.5zM410 1008q0 53 33.5 95t84.5 54l-100 103l72 71l217 -217l-25 -24q25 -37 25 -82q0 -63 -45 -108.5t-109 -45.5q-63 0 -108 45.5t-45 108.5zM422 614q16 -68 55 -124t92.5 -97t118 -63.5t131.5 -22.5q68 0 132.5 22.5t117.5 63.5t92 97.5t56 123.5 h-91l-102 -204l-102 204h-205l-103 -204l-102 204h-90zM922 1008q0 57 39 102l-21 20l217 218l72 -72l-119 -119q51 -12 85 -54t34 -95q0 -63 -45 -108.5t-109 -45.5q-63 0 -108 45.5t-45 108.5z" />
<glyph unicode="2" horiz-adv-x="1761" d="M0 815q0 119 34 229.5t95 207t148.5 173t193.5 127.5l-47 47l217 216l72 -72l-156 -156q135 41 258 41q156 0 285 -51l-166 166l72 72l217 -216l-54 -51q104 -49 189.5 -127t145 -175t92 -207.5t32.5 -223.5q0 -166 -64.5 -314.5t-175 -260t-258 -176t-315.5 -64.5 q-207 0 -395 102h-12v7q-94 55 -170 130.5t-128.5 166t-81 194.5t-28.5 215zM102 815q0 -174 81 -329.5t225 -256.5v322q-203 168 -205 416h123q0 -96 41 -177t108.5 -141.5t155.5 -94.5t184 -34t184 35t156 94.5t108 141t40 176.5h122q0 -250 -202 -416v-322 q141 100 223 256t82 330q0 145 -56.5 275.5t-153.5 227.5t-227 153.5t-276 56.5q-147 0 -276 -56.5t-226.5 -153.5t-154 -227.5t-56.5 -275.5zM510 203h215v211q-59 8 -112.5 25.5t-102.5 43.5v-280zM510 1069q0 63 45 108.5t107 45.5q63 0 108 -45t45 -109 q0 -63 -45 -108.5t-108 -45.5q-61 0 -106.5 45.5t-45.5 108.5zM815 967q0 63 45 108t107 45q63 0 108 -45t45 -108q0 -61 -45 -106.5t-108 -45.5q-61 0 -106.5 45.5t-45.5 106.5zM838 102q188 6 344 101h-344v-101zM926 305h194v178q-47 -27 -95 -42t-99 -23v-113z" />
<glyph unicode="3" d="M0 819q0 168 64.5 317.5t176 261t260 176t318.5 64.5q168 0 317.5 -64.5t261 -176t176 -261t64.5 -317.5q0 -170 -64.5 -318.5t-176 -260t-261 -176t-317.5 -64.5q-170 0 -318.5 64.5t-260 176t-176 260t-64.5 318.5zM102 819q0 -297 205 -502q2 104 44 195.5t111.5 159 t162 107.5t194.5 40t194.5 -40t162 -107.5t111.5 -158.5t44 -196q205 205 205 502q0 147 -57.5 277.5t-154.5 227.5t-227 154.5t-278 57.5q-145 0 -275 -56.5t-228.5 -153.5t-156 -227t-57.5 -280zM410 307h819q0 61 -23 135h-774q-22 -74 -22 -135zM410 973q0 61 44 106 t105 47l-131 134l72 71l217 -217l-39 -39q39 -45 39 -102q0 -63 -45 -108.5t-109 -45.5q-63 0 -108 45.5t-45 108.5zM451 205q170 -102 368 -103q199 0 369 103h-737zM516 582h606q-121 135 -303 135q-184 0 -303 -135zM922 973q0 63 47 110l-29 31l217 217l72 -71 l-133 -136q55 -6 94 -50t39 -101q0 -63 -45 -108.5t-109 -45.5q-63 0 -108 45.5t-45 108.5z" />
<glyph unicode="4" d="M0 819q0 168 64.5 317.5t176 261t260 176t318.5 64.5q168 0 317.5 -64.5t261 -176t176 -261t64.5 -317.5q0 -170 -64.5 -318.5t-176 -260t-261 -176t-317.5 -64.5q-311 0 -540 205h-7v4q-272 241 -272 610zM102 819q0 -297 205 -502v400h1024v-400q205 205 205 502 q0 147 -57.5 277.5t-154.5 227.5t-227 154.5t-278 57.5q-145 0 -275 -56.5t-228.5 -153.5t-156 -227t-57.5 -280zM395 307h117v103h-117v-103zM395 512h117v102h-117v-102zM410 973q0 61 44 106t105 47l-131 134l72 71l217 -217l-39 -39q39 -45 39 -102q0 -63 -45 -108.5 t-109 -45.5q-63 0 -108 45.5t-45 108.5zM451 205q170 -102 368 -103q199 0 369 103h-737zM614 307h170v103h-170v-103zM614 512h170v102h-170v-102zM872 307h152v103h-152v-103zM872 512h152v102h-152v-102zM922 973q0 63 47 110l-29 31l217 217l72 -71l-133 -136 q55 -6 94 -50t39 -101q0 -63 -45 -108.5t-109 -45.5q-63 0 -108 45.5t-45 108.5zM1126 307h117v103h-117v-103zM1126 512h117v102h-117v-102z" />
<glyph unicode="5" d="M0 819q0 168 64.5 317.5t176 261t260 176t318.5 64.5q168 0 317.5 -64.5t261 -176t176 -261t64.5 -317.5q0 -170 -64.5 -318.5t-176 -260t-261 -176t-317.5 -64.5q-170 0 -318.5 64.5t-260 176t-176 260t-64.5 318.5zM102 819q0 -147 56.5 -278t154 -228.5t228.5 -154 t278 -56.5q150 0 280 57.5t227 156t153.5 228.5t56.5 275q0 147 -57.5 277.5t-154.5 227.5t-227 154.5t-278 57.5q-145 0 -275 -56.5t-228.5 -153.5t-156 -227t-57.5 -280zM307 614v103h1024v-103h-102l-103 -204l-102 204h-410l-102 -204l-102 204h-103zM410 973 q0 61 44 106t105 47l-131 134l72 71l217 -217l-39 -39q39 -45 39 -102q0 -63 -45 -108.5t-109 -45.5q-63 0 -108 45.5t-45 108.5zM922 973q0 63 47 110l-29 31l217 217l72 -71l-133 -136q55 -6 94 -50t39 -101q0 -63 -45 -108.5t-109 -45.5q-63 0 -108 45.5t-45 108.5z" />
<glyph unicode="6" horiz-adv-x="1775" d="M0 815q0 309 205 539v481l336 -252q141 47 274 47q125 0 260 -41l369 246l-27 -469q213 -238 213 -551q0 -166 -64.5 -314.5t-175 -260t-259 -176t-316.5 -64.5t-316.5 64.5t-259 175t-175 259t-64.5 316.5zM102 815q0 -147 56.5 -276t154 -226.5t226.5 -154t276 -56.5 t277.5 56.5t227.5 154t153.5 227.5t56.5 275t-57.5 275.5t-154.5 227.5t-227 154.5t-276 57.5q-145 0 -275 -56.5t-227.5 -153.5t-154 -227.5t-56.5 -277.5zM305 612v101h1020v-101h-102l-101 -204l-102 204h-408l-102 -204l-102 204h-103zM408 969q0 61 44 106t105 45 l-131 133l72 72l215 -215l-39 -39q39 -45 39 -102q0 -63 -45 -108.5t-107 -45.5q-63 0 -108 45.5t-45 108.5zM918 969q0 63 47 110l-29 31l215 215l72 -72l-133 -133q57 -8 95 -51t38 -100q0 -63 -45 -108.5t-107 -45.5q-63 0 -108 45.5t-45 108.5z" />
<glyph unicode="7" horiz-adv-x="1771" d="M0 811q0 350 254 590q-254 88 -254 221q0 63 68.5 119.5t182.5 97.5t259 64.5t301 23.5t301 -23.5t259 -64.5t182.5 -97t68.5 -120q0 -133 -254 -221q254 -240 254 -590q0 -166 -64.5 -313.5t-175 -258t-258 -175t-313.5 -64.5t-313.5 64.5t-258 175t-175 258 t-64.5 313.5zM102 811q0 -145 56.5 -274t153 -225.5t225.5 -153t274 -56.5q147 0 276.5 57.5t226.5 154t152.5 225.5t55.5 272q0 162 -71 307.5t-200 249.5q-201 -49 -440 -49q-242 0 -440 49q-129 -104 -199 -249.5t-70 -307.5zM102 1622q0 -92 238 -152q213 152 471 152 t471 -152q240 57 240 152q0 43 -59.5 80t-159 64.5t-227.5 43t-265 15.5q-135 0 -263 -15.5t-227.5 -43t-159 -64.5t-59.5 -80zM305 811h101q0 -84 31.5 -157.5t87 -129t129 -87t157.5 -31.5q82 0 155.5 31.5t129 87t88.5 129t33 157.5h102q0 -104 -40 -195.5t-109.5 -161 t-162 -109.5t-196.5 -40t-196.5 40t-161 108.5t-108.5 161t-40 196.5zM406 963q0 63 45 108t106 45q63 0 108.5 -45t45.5 -108q0 -61 -45 -106.5t-109 -45.5q-61 0 -106 45.5t-45 106.5zM485 1442q78 -10 159 -16.5t167 -6.5t167 6.5t159 16.5q-154 80 -326 80t-326 -80z M913 963q0 63 44 108t108 45q61 0 106.5 -45t45.5 -108q0 -61 -45.5 -106.5t-106.5 -45.5q-63 0 -107.5 45.5t-44.5 106.5z" />
<glyph unicode="8" d="M0 819q0 168 64.5 317.5t176 261t260 176t318.5 64.5q168 0 317.5 -64.5t261 -176t176 -261t64.5 -317.5q0 -170 -64.5 -318.5t-176 -260t-261 -176t-317.5 -64.5q-170 0 -318.5 64.5t-260 176t-176 260t-64.5 318.5zM102 819q0 -147 56.5 -278t154 -228.5t228.5 -154 t278 -56.5q150 0 280 57.5t227 156t153.5 228.5t56.5 275q0 147 -57.5 277.5t-154.5 227.5t-227 154.5t-278 57.5q-145 0 -275 -56.5t-228.5 -153.5t-156 -227t-57.5 -280zM307 819h51q-51 63 -51 154q0 53 20.5 100t56.5 82t82 54.5t97 19.5t98.5 -20.5t82 -55.5t55 -82 t20.5 -98q0 53 20.5 100t56.5 82t82 54.5t97 19.5t98.5 -20.5t82 -55.5t55 -82t20.5 -98q0 -90 -51 -154h51q0 -104 -41 -197.5t-110.5 -163t-162.5 -110.5t-198 -41q-106 0 -199.5 40t-163 109.5t-109.5 163t-40 199.5zM414 766q10 -78 46 -143.5t90 -112.5t122.5 -73.5 t146.5 -26.5q76 0 145.5 27.5t124 74.5t90 112.5t46.5 141.5q-68 -49 -150 -49q-53 0 -100 19.5t-82 54t-54.5 82t-19.5 100.5q0 -51 -19.5 -97.5t-54 -82t-82 -56t-100.5 -20.5q-81 0 -149 49zM434 973q0 -53 38 -91t91 -38t90 38t37 91t-37 90t-90 37t-91 -37t-38 -90z M946 973q0 -53 38 -91t91 -38t90 38t37 91t-37 90t-90 37t-91 -37t-38 -90z" />
<glyph unicode="9" horiz-adv-x="1781" d="M0 819q0 311 205 541v481l336 -252q145 47 278 47t260 -43l369 248l-25 -471q213 -238 213 -551q0 -170 -64.5 -318.5t-176 -260t-260 -176t-316.5 -64.5q-170 0 -318.5 64.5t-260 176t-176 260t-64.5 318.5zM102 819q0 -147 56.5 -278t154 -228.5t228.5 -154t278 -56.5 t277.5 57.5t227.5 155t153.5 227.5t56.5 277q0 145 -57.5 275.5t-154.5 227.5t-227 154.5t-276 57.5q-147 0 -277 -56.5t-227.5 -153.5t-155 -227.5t-57.5 -277.5zM307 819h103q0 -86 31.5 -160.5t87 -130t130 -87t160.5 -31.5q82 0 157 32.5t130 88t88 130t33 158.5h102 q0 -104 -40 -197.5t-109.5 -163t-162.5 -110.5t-198 -41q-106 0 -199.5 40t-163 109.5t-109.5 163t-40 199.5zM410 973q0 61 44 106t105 45l-133 133l74 72l217 -217l-39 -39q39 -39 39 -100q0 -63 -45 -108.5t-109 -45.5q-63 0 -108 45.5t-45 108.5zM922 973q0 63 47 110 l-31 29l217 217l72 -72l-133 -133q57 -8 95 -51t38 -100q0 -63 -45 -108.5t-107 -45.5q-63 0 -108 45.5t-45 108.5z" />
<glyph unicode=":" horiz-adv-x="1779" d="M0 819q0 168 64.5 317.5t176 261t260 176t318.5 64.5q168 0 317.5 -64.5t261 -176t176 -261t64.5 -317.5q0 -170 -64.5 -318.5t-176 -260t-261 -176t-317.5 -64.5q-170 0 -318.5 64.5t-260 176t-176 260t-64.5 318.5zM102 819q0 -147 56.5 -278t154 -228.5t228.5 -154 t278 -56.5q150 0 280 57.5t227 156t153.5 228.5t56.5 275q0 147 -57.5 277.5t-154.5 227.5t-227 154.5t-278 57.5q-145 0 -275 -56.5t-228.5 -153.5t-156 -227t-57.5 -280zM307 819h103q0 -86 31.5 -160.5t87 -130t130 -87t160.5 -31.5q84 0 159 32.5t130 88t88 130 t33 158.5h102q0 -104 -41 -197.5t-110.5 -163t-162.5 -110.5t-198 -41q-106 0 -199.5 40t-163 109.5t-109.5 163t-40 199.5zM410 973q0 63 45 108t108 45t108.5 -45t45.5 -108t-45 -108.5t-109 -45.5q-63 0 -108 45.5t-45 108.5zM922 973q0 63 45 108t108 45t108.5 -45 t45.5 -108t-45 -108.5t-109 -45.5q-63 0 -108 45.5t-45 108.5z" />
<glyph unicode=";" horiz-adv-x="1779" d="M0 819q0 168 64.5 317.5t176 261t260 176t318.5 64.5q168 0 317.5 -64.5t261 -176t176 -261t64.5 -317.5q0 -170 -64.5 -318.5t-176 -260t-261 -176t-317.5 -64.5q-170 0 -318.5 64.5t-260 176t-176 260t-64.5 318.5zM102 819q0 -147 56.5 -278t154 -228.5t228.5 -154 t278 -56.5q150 0 280 57.5t227 156t153.5 228.5t56.5 275q0 147 -57.5 277.5t-154.5 227.5t-227 154.5t-278 57.5q-145 0 -275 -56.5t-228.5 -153.5t-156 -227t-57.5 -280zM307 819h103q0 -86 31.5 -160.5t87 -130t130 -87t160.5 -31.5q84 0 159 32.5t130 88t88 130 t33 158.5h102q0 -104 -41 -197.5t-110.5 -163t-162.5 -110.5t-198 -41q-106 0 -199.5 40t-163 109.5t-109.5 163t-40 199.5zM410 922v102h307v-102h-307zM922 973q0 63 45 108t108 45t108.5 -45t45.5 -108t-45 -108.5t-109 -45.5q-63 0 -108 45.5t-45 108.5z" />
<glyph unicode="A" horiz-adv-x="1779" d="M0 819q0 168 64.5 317.5t176 261t260 176t318.5 64.5q168 0 317.5 -64.5t261 -176t176 -261t64.5 -317.5q0 -170 -64.5 -318.5t-176 -260t-261 -176t-317.5 -64.5q-170 0 -318.5 64.5t-260 176t-176 260t-64.5 318.5zM102 819q0 -147 56.5 -278t154 -228.5t228.5 -154 t278 -56.5q150 0 280 57.5t227 156t153.5 228.5t56.5 275q0 147 -57.5 277.5t-154.5 227.5t-227 154.5t-278 57.5q-145 0 -275 -56.5t-228.5 -153.5t-156 -227t-57.5 -280zM307 819h103q0 -86 31.5 -160.5t87 -130t130 -87t160.5 -31.5q84 0 159 32.5t130 88t88 130 t33 158.5h102q0 -104 -41 -197.5t-110.5 -163t-162.5 -110.5t-198 -41q-106 0 -199.5 40t-163 109.5t-109.5 163t-40 199.5zM410 973q0 63 45 108t108 45t108.5 -45t45.5 -108t-45 -108.5t-109 -45.5q-63 0 -108 45.5t-45 108.5zM922 973q0 63 45 108t108 45t108.5 -45 t45.5 -108t-45 -108.5t-109 -45.5q-63 0 -108 45.5t-45 108.5z" />
<glyph unicode="B" d="M0 819q0 209 102 398v12h9q53 94 129.5 170t170 129t197 81.5t211.5 28.5q106 0 211 -28.5t198 -81.5t170 -129t130 -170h8v-12q102 -188 102 -398q0 -170 -64.5 -318.5t-176 -260t-261 -176t-317.5 -64.5q-170 0 -318.5 64.5t-260 176t-176 260t-64.5 318.5zM102 819 q0 -147 56.5 -278t154 -228.5t228.5 -154t278 -56.5q150 0 280 57.5t227 156t153.5 228.5t56.5 275q0 170 -70 307h-135v-102q0 -45 -21.5 -82t-57 -64.5t-82 -43t-95.5 -15.5t-95 15.5t-82 43t-57.5 64.5t-21.5 82q0 -45 -21.5 -82t-57 -64.5t-82 -43t-95.5 -15.5t-95 15.5 t-82 43t-57.5 64.5t-21.5 82v102h-135q-70 -137 -70 -307zM231 1229h1176q-100 143 -257 225t-331 82t-331 -82t-257 -225zM307 819h103q0 -86 31.5 -160.5t87 -130t130 -87t160.5 -31.5q84 0 159 32.5t130 88t88 130t33 158.5h102q0 -104 -41 -197.5t-110.5 -163 t-162.5 -110.5t-198 -41q-106 0 -199.5 40t-163 109.5t-109.5 163t-40 199.5z" />
<glyph unicode="C" horiz-adv-x="1779" d="M0 819q0 168 64.5 317.5t176 261t260 176t318.5 64.5q168 0 317.5 -64.5t261 -176t176 -261t64.5 -317.5q0 -170 -64.5 -318.5t-176 -260t-261 -176t-317.5 -64.5q-170 0 -318.5 64.5t-260 176t-176 260t-64.5 318.5zM102 819q0 -147 56.5 -278t154 -228.5t228.5 -154 t278 -56.5q150 0 280 57.5t227 156t153.5 228.5t56.5 275q0 147 -57.5 277.5t-154.5 227.5t-227 154.5t-278 57.5q-145 0 -275 -56.5t-228.5 -153.5t-156 -227t-57.5 -280zM410 512v102h819v-102h-819zM410 973q0 63 45 108t108 45t108.5 -45t45.5 -108t-45 -108.5 t-109 -45.5q-63 0 -108 45.5t-45 108.5zM922 973q0 63 45 108t108 45t108.5 -45t45.5 -108t-45 -108.5t-109 -45.5q-63 0 -108 45.5t-45 108.5z" />
<glyph unicode="D" horiz-adv-x="1779" d="M0 819q0 168 64.5 317.5t176 261t260 176t318.5 64.5q168 0 317.5 -64.5t261 -176t176 -261t64.5 -317.5q0 -170 -64.5 -318.5t-176 -260t-261 -176t-317.5 -64.5q-170 0 -318.5 64.5t-260 176t-176 260t-64.5 318.5zM102 819q0 -147 56.5 -278t154 -228.5t228.5 -154 t278 -56.5q150 0 280 57.5t227 156t153.5 228.5t56.5 275q0 147 -57.5 277.5t-154.5 227.5t-227 154.5t-278 57.5q-145 0 -275 -56.5t-228.5 -153.5t-156 -227t-57.5 -280zM307 752h1024q0 -104 -41 -197.5t-110.5 -163t-162.5 -110.5t-198 -41q-106 0 -199.5 39.5 t-163 109.5t-109.5 163.5t-40 199.5zM410 1008q0 61 45 107t108 46t108.5 -46t45.5 -107q0 -63 -45 -108.5t-109 -45.5q-63 0 -108 45.5t-45 108.5zM422 649q16 -68 55 -124t92.5 -97t118 -63.5t131.5 -22.5q68 0 132.5 22.5t117.5 63.5t92 97.5t56 123.5h-795zM922 1008 q0 61 45 107t108 46t108.5 -46t45.5 -107q0 -63 -45 -108.5t-109 -45.5q-63 0 -108 45.5t-45 108.5z" />
<glyph unicode="E" horiz-adv-x="1779" d="M0 819q0 168 64.5 317.5t176 261t260 176t318.5 64.5q168 0 317.5 -64.5t261 -176t176 -261t64.5 -317.5q0 -170 -64.5 -318.5t-176 -260t-261 -176t-317.5 -64.5q-170 0 -318.5 64.5t-260 176t-176 260t-64.5 318.5zM102 819q0 -147 56.5 -278t154 -228.5t228.5 -154 t278 -56.5q150 0 280 57.5t227 156t153.5 228.5t56.5 275q0 147 -57.5 277.5t-154.5 227.5t-227 154.5t-278 57.5q-145 0 -275 -56.5t-228.5 -153.5t-156 -227t-57.5 -280zM410 512v102h819v-102q0 -57 -15.5 -112.5t-42 -98.5t-64.5 -69.5t-83 -26.5t-83 26.5t-64.5 69.5 t-42 98.5t-15.5 112.5h-409zM410 973q0 63 45 108t108 45t108.5 -45t45.5 -108t-45 -108.5t-109 -45.5q-63 0 -108 45.5t-45 108.5zM922 512q0 -35 8 -72t22.5 -66.5t33 -48t38.5 -18.5q18 0 36.5 18.5t33 48t23.5 66.5t9 72h-204zM922 973q0 63 45 108t108 45t108.5 -45 t45.5 -108t-45 -108.5t-109 -45.5q-63 0 -108 45.5t-45 108.5z" />
<glyph unicode="F" horiz-adv-x="1779" d="M0 819q0 168 64.5 317.5t176 261t260 176t318.5 64.5q168 0 317.5 -64.5t261 -176t176 -261t64.5 -317.5q0 -170 -64.5 -318.5t-176 -260t-261 -176t-317.5 -64.5q-170 0 -318.5 64.5t-260 176t-176 260t-64.5 318.5zM102 819q0 -147 56.5 -278t154 -228.5t228.5 -154 t278 -56.5q150 0 280 57.5t227 156t153.5 228.5t56.5 275q0 147 -57.5 277.5t-154.5 227.5t-227 154.5t-278 57.5q-145 0 -275 -56.5t-228.5 -153.5t-156 -227t-57.5 -280zM410 973q0 63 45 108t108 45t108.5 -45t45.5 -108t-45 -108.5t-109 -45.5q-63 0 -108 45.5 t-45 108.5zM512 512v102h614v-102h-102q0 -57 -15.5 -112.5t-42 -98.5t-64.5 -69.5t-83 -26.5t-83 26.5t-64.5 69.5t-42 98.5t-15.5 112.5h-102zM717 512q0 -35 8 -72t22.5 -66.5t33 -48t38.5 -18.5q18 0 36.5 18.5t33 48t24 66.5t9.5 72h-205zM922 973q0 63 45 108t108 45 t108.5 -45t45.5 -108t-45 -108.5t-109 -45.5q-63 0 -108 45.5t-45 108.5z" />
<glyph unicode="G" d="M0 819q0 168 64.5 317.5t176 261t260 176t318.5 64.5q168 0 317.5 -64.5t261 -176t176 -261t64.5 -317.5q0 -170 -64.5 -318.5t-176 -260t-261 -176t-317.5 -64.5q-170 0 -318.5 64.5t-260 176t-176 260t-64.5 318.5zM102 819q0 -147 56.5 -278t154 -228.5t228.5 -154 t278 -56.5q150 0 280 57.5t227 156t153.5 228.5t56.5 275q0 147 -57.5 277.5t-154.5 227.5t-227 154.5t-278 57.5q-145 0 -275 -56.5t-228.5 -153.5t-156 -227t-57.5 -280zM410 973q0 63 45 108t108 45t108.5 -45t45.5 -108t-45 -108.5t-109 -45.5q-63 0 -108 45.5 t-45 108.5zM469 293l709 409l51 -88l-709 -409zM922 973q0 63 45 108t108 45t108.5 -45t45.5 -108t-45 -108.5t-109 -45.5q-63 0 -108 45.5t-45 108.5z" />
<glyph unicode="H" horiz-adv-x="1779" d="M0 819q0 168 64.5 317.5t176 261t260 176t318.5 64.5q168 0 317.5 -64.5t261 -176t176 -261t64.5 -317.5q0 -170 -64.5 -318.5t-176 -260t-261 -176t-317.5 -64.5q-170 0 -318.5 64.5t-260 176t-176 260t-64.5 318.5zM102 819q0 -147 56.5 -278t154 -228.5t228.5 -154 t278 -56.5q150 0 280 57.5t227 156t153.5 228.5t56.5 275q0 147 -57.5 277.5t-154.5 227.5t-227 154.5t-278 57.5q-145 0 -275 -56.5t-228.5 -153.5t-156 -227t-57.5 -280zM307 819h103q0 -86 31.5 -160.5t87 -130t130 -87t160.5 -31.5q84 0 159 32.5t130 88t88 130 t33 158.5h102q0 -104 -41 -197.5t-110.5 -163t-162.5 -110.5t-198 -41q-106 0 -199.5 40t-163 109.5t-109.5 163t-40 199.5zM410 922v102h307v-102h-307zM922 973q0 63 45 108t108 45t108.5 -45t45.5 -108t-45 -108.5t-109 -45.5q-63 0 -108 45.5t-45 108.5z" />
<glyph unicode="I" horiz-adv-x="1779" d="M0 819q0 168 64.5 317.5t176 261t260 176t318.5 64.5q168 0 317.5 -64.5t261 -176t176 -261t64.5 -317.5q0 -170 -64.5 -318.5t-176 -260t-261 -176t-317.5 -64.5q-170 0 -318.5 64.5t-260 176t-176 260t-64.5 318.5zM102 819q0 -297 205 -502q2 104 44 195.5t111.5 159 t162 107.5t194.5 40t194.5 -40t162 -107.5t111.5 -158.5t44 -196q205 205 205 502q0 147 -57.5 277.5t-154.5 227.5t-227 154.5t-278 57.5q-145 0 -275 -56.5t-228.5 -153.5t-156 -227t-57.5 -280zM317 307q205 -205 502 -205t502 205h-92q0 84 -33 159t-88 130t-130 88 t-159 33t-158.5 -33t-130 -88t-88 -130t-32.5 -159h-93zM410 922v102h307v-102h-307zM922 973q0 63 45 108t108 45t108.5 -45t45.5 -108t-45 -108.5t-109 -45.5q-63 0 -108 45.5t-45 108.5z" />
<glyph unicode="J" horiz-adv-x="1779" d="M0 819q0 168 64.5 317.5t176 261t260 176t318.5 64.5q168 0 317.5 -64.5t261 -176t176 -261t64.5 -317.5q0 -170 -64.5 -318.5t-176 -260t-261 -176t-317.5 -64.5q-170 0 -318.5 64.5t-260 176t-176 260t-64.5 318.5zM102 819q0 -147 56.5 -278t154 -228.5t228.5 -154 t278 -56.5q150 0 280 57.5t227 156t153.5 228.5t56.5 275q0 147 -57.5 277.5t-154.5 227.5t-227 154.5t-278 57.5q-145 0 -275 -56.5t-228.5 -153.5t-156 -227t-57.5 -280zM410 512v102h819v-102h-819zM410 922v102h307v-102h-307zM922 973q0 63 45 108t108 45t108.5 -45 t45.5 -108t-45 -108.5t-109 -45.5q-63 0 -108 45.5t-45 108.5z" />
<glyph unicode="K" horiz-adv-x="1779" d="M0 819q0 168 64.5 317.5t176 261t260 176t318.5 64.5q168 0 317.5 -64.5t261 -176t176 -261t64.5 -317.5q0 -170 -64.5 -318.5t-176 -260t-261 -176t-317.5 -64.5q-170 0 -318.5 64.5t-260 176t-176 260t-64.5 318.5zM102 819q0 -147 56.5 -278t154 -228.5t228.5 -154 t278 -56.5q150 0 280 57.5t227 156t153.5 228.5t56.5 275q0 147 -57.5 277.5t-154.5 227.5t-227 154.5t-278 57.5q-145 0 -275 -56.5t-228.5 -153.5t-156 -227t-57.5 -280zM307 717h1024q0 -104 -41 -197.5t-110.5 -163t-162.5 -110.5t-198 -41q-106 0 -199.5 40t-163 109.5 t-109.5 163t-40 199.5zM410 956v103h307v-103h-307zM422 614q16 -68 55 -124t92.5 -97t118 -63.5t131.5 -22.5q68 0 132.5 22.5t117.5 63.5t92 97.5t56 123.5h-795zM922 1008q0 61 45 107t108 46t108.5 -46t45.5 -107q0 -63 -45 -108.5t-109 -45.5q-63 0 -108 45.5 t-45 108.5z" />
<glyph unicode="L" horiz-adv-x="1779" d="M0 819q0 168 64.5 317.5t176 261t260 176t318.5 64.5q168 0 317.5 -64.5t261 -176t176 -261t64.5 -317.5q0 -170 -64.5 -318.5t-176 -260t-261 -176t-317.5 -64.5q-170 0 -318.5 64.5t-260 176t-176 260t-64.5 318.5zM102 819q0 -147 56.5 -278t154 -228.5t228.5 -154 t278 -56.5q150 0 280 57.5t227 156t153.5 228.5t56.5 275q0 147 -57.5 277.5t-154.5 227.5t-227 154.5t-278 57.5q-145 0 -275 -56.5t-228.5 -153.5t-156 -227t-57.5 -280zM410 512v102h819v-102q0 -57 -15.5 -112.5t-42 -98.5t-64.5 -69.5t-83 -26.5t-83 26.5t-64.5 69.5 t-42 98.5t-15.5 112.5h-409zM410 922v102h307v-102h-307zM922 512q0 -35 8 -72t22.5 -66.5t33 -48t38.5 -18.5q18 0 36.5 18.5t33 48t23.5 66.5t9 72h-204zM922 973q0 63 45 108t108 45t108.5 -45t45.5 -108t-45 -108.5t-109 -45.5q-63 0 -108 45.5t-45 108.5z" />
<glyph unicode="M" horiz-adv-x="1779" d="M0 819q0 168 64.5 317.5t176 261t260 176t318.5 64.5q168 0 317.5 -64.5t261 -176t176 -261t64.5 -317.5q0 -170 -64.5 -318.5t-176 -260t-261 -176t-317.5 -64.5q-170 0 -318.5 64.5t-260 176t-176 260t-64.5 318.5zM102 819q0 -147 56.5 -278t154 -228.5t228.5 -154 t278 -56.5q150 0 280 57.5t227 156t153.5 228.5t56.5 275q0 147 -57.5 277.5t-154.5 227.5t-227 154.5t-278 57.5q-145 0 -275 -56.5t-228.5 -153.5t-156 -227t-57.5 -280zM410 922v102h307v-102h-307zM512 512v102h614v-102h-102q0 -57 -15.5 -112.5t-42 -98.5t-64.5 -69.5 t-83 -26.5t-83 26.5t-64.5 69.5t-42 98.5t-15.5 112.5h-102zM717 512q0 -35 8 -72t22.5 -66.5t33 -48t38.5 -18.5q18 0 36.5 18.5t33 48t24 66.5t9.5 72h-205zM922 973q0 63 45 108t108 45t108.5 -45t45.5 -108t-45 -108.5t-109 -45.5q-63 0 -108 45.5t-45 108.5z" />
<glyph unicode="N" horiz-adv-x="1779" d="M0 819q0 168 64.5 317.5t176 261t260 176t318.5 64.5q168 0 317.5 -64.5t261 -176t176 -261t64.5 -317.5q0 -170 -64.5 -318.5t-176 -260t-261 -176t-317.5 -64.5q-170 0 -318.5 64.5t-260 176t-176 260t-64.5 318.5zM102 819q0 -147 56.5 -278t154 -228.5t228.5 -154 t278 -56.5q150 0 280 57.5t227 156t153.5 228.5t56.5 275q0 147 -57.5 277.5t-154.5 227.5t-227 154.5t-278 57.5q-145 0 -275 -56.5t-228.5 -153.5t-156 -227t-57.5 -280zM410 629l51 88l708 -410l-51 -88zM410 973q0 63 45 108t108 45t108.5 -45t45.5 -108t-45 -108.5 t-109 -45.5q-63 0 -108 45.5t-45 108.5zM922 973q0 63 45 108t108 45t108.5 -45t45.5 -108t-45 -108.5t-109 -45.5q-63 0 -108 45.5t-45 108.5z" />
<glyph unicode="O" horiz-adv-x="1779" d="M0 819q0 168 64.5 317.5t176 261t260 176t318.5 64.5q168 0 317.5 -64.5t261 -176t176 -261t64.5 -317.5q0 -170 -64.5 -318.5t-176 -260t-261 -176t-317.5 -64.5q-170 0 -318.5 64.5t-260 176t-176 260t-64.5 318.5zM102 819q0 -147 56.5 -278t154 -228.5t228.5 -154 t278 -56.5q150 0 280 57.5t227 156t153.5 228.5t56.5 275q0 147 -57.5 277.5t-154.5 227.5t-227 154.5t-278 57.5q-145 0 -275 -56.5t-228.5 -153.5t-156 -227t-57.5 -280zM307 819h103q0 -86 31.5 -160.5t87 -130t130 -87t160.5 -31.5q84 0 159 32.5t130 88t88 130 t33 158.5h102q0 -104 -41 -197.5t-110.5 -163t-162.5 -110.5t-198 -41q-106 0 -199.5 40t-163 109.5t-109.5 163t-40 199.5zM410 922v102h307v-102h-307zM410 1260l71 71l217 -217l-71 -72zM922 973q0 57 39 102l-39 39l217 217l71 -71l-131 -134q61 -2 105.5 -47t44.5 -106 q0 -63 -45 -108.5t-109 -45.5q-63 0 -108 45.5t-45 108.5z" />
<glyph unicode="P" horiz-adv-x="1779" d="M0 819q0 168 64.5 317.5t176 261t260 176t318.5 64.5q168 0 317.5 -64.5t261 -176t176 -261t64.5 -317.5q0 -170 -64.5 -318.5t-176 -260t-261 -176t-317.5 -64.5q-170 0 -318.5 64.5t-260 176t-176 260t-64.5 318.5zM102 819q0 -297 205 -502q2 104 44 195.5t111.5 159 t162 107.5t194.5 40t194.5 -40t162 -107.5t111.5 -158.5t44 -196q205 205 205 502q0 147 -57.5 277.5t-154.5 227.5t-227 154.5t-278 57.5q-145 0 -275 -56.5t-228.5 -153.5t-156 -227t-57.5 -280zM317 307q205 -205 502 -205t502 205h-92q0 84 -33 159t-88 130t-130 88 t-159 33t-158.5 -33t-130 -88t-88 -130t-32.5 -159h-93zM410 922v102h307v-102h-307zM410 1260l71 71l217 -217l-71 -72zM922 973q0 57 39 102l-39 39l217 217l71 -71l-131 -134q61 -2 105.5 -47t44.5 -106q0 -63 -45 -108.5t-109 -45.5q-63 0 -108 45.5t-45 108.5z" />
<glyph unicode="Q" horiz-adv-x="1779" d="M0 819q0 168 64.5 317.5t176 261t260 176t318.5 64.5q168 0 317.5 -64.5t261 -176t176 -261t64.5 -317.5q0 -170 -64.5 -318.5t-176 -260t-261 -176t-317.5 -64.5q-170 0 -318.5 64.5t-260 176t-176 260t-64.5 318.5zM102 819q0 -147 56.5 -278t154 -228.5t228.5 -154 t278 -56.5q150 0 280 57.5t227 156t153.5 228.5t56.5 275q0 147 -57.5 277.5t-154.5 227.5t-227 154.5t-278 57.5q-145 0 -275 -56.5t-228.5 -153.5t-156 -227t-57.5 -280zM410 512v102h819v-102h-819zM410 922v102h307v-102h-307zM410 1260l71 71l217 -217l-71 -72z M922 973q0 57 39 102l-39 39l217 217l71 -71l-131 -134q61 -2 105.5 -47t44.5 -106q0 -63 -45 -108.5t-109 -45.5q-63 0 -108 45.5t-45 108.5z" />
<glyph unicode="R" horiz-adv-x="1779" d="M0 819q0 168 64.5 317.5t176 261t260 176t318.5 64.5q168 0 317.5 -64.5t261 -176t176 -261t64.5 -317.5q0 -170 -64.5 -318.5t-176 -260t-261 -176t-317.5 -64.5q-170 0 -318.5 64.5t-260 176t-176 260t-64.5 318.5zM102 819q0 -147 56.5 -278t154 -228.5t228.5 -154 t278 -56.5q150 0 280 57.5t227 156t153.5 228.5t56.5 275q0 147 -57.5 277.5t-154.5 227.5t-227 154.5t-278 57.5q-145 0 -275 -56.5t-228.5 -153.5t-156 -227t-57.5 -280zM307 717h1024q0 -104 -41 -197.5t-110.5 -163t-162.5 -110.5t-198 -41q-106 0 -199.5 40t-163 109.5 t-109.5 163t-40 199.5zM410 922v102h307v-102h-307zM422 614q16 -68 55 -124t92.5 -97t118 -63.5t131.5 -22.5q68 0 132.5 22.5t117.5 63.5t92 97.5t56 123.5h-795zM428 1260l72 71l217 -217l-72 -72zM922 973q0 63 47 110l-29 31l217 217l72 -71l-133 -136q55 -6 94 -50 t39 -101q0 -63 -45 -108.5t-109 -45.5q-63 0 -108 45.5t-45 108.5z" />
<glyph unicode="S" horiz-adv-x="1779" d="M0 819q0 168 64.5 317.5t176 261t260 176t318.5 64.5q168 0 317.5 -64.5t261 -176t176 -261t64.5 -317.5q0 -170 -64.5 -318.5t-176 -260t-261 -176t-317.5 -64.5q-170 0 -318.5 64.5t-260 176t-176 260t-64.5 318.5zM102 819q0 -147 56.5 -278t154 -228.5t228.5 -154 t278 -56.5q150 0 280 57.5t227 156t153.5 228.5t56.5 275q0 147 -57.5 277.5t-154.5 227.5t-227 154.5t-278 57.5q-145 0 -275 -56.5t-228.5 -153.5t-156 -227t-57.5 -280zM410 512v102h819v-102q0 -57 -15.5 -112.5t-42 -98.5t-64.5 -69.5t-83 -26.5t-83 26.5t-64.5 69.5 t-42 98.5t-15.5 112.5h-409zM410 909l71 72l-71 74l71 71l74 -71l72 71l71 -71l-71 -74l71 -72l-71 -71l-72 71l-74 -71zM922 512q0 -35 8 -72t22.5 -66.5t33 -48t38.5 -18.5q18 0 36.5 18.5t33 48t23.5 66.5t9 72h-204zM922 903l71 74l-71 72l71 71l74 -71l72 71l71 -71 l-71 -72l71 -74l-71 -72l-72 72l-74 -72z" />
<glyph unicode="T" horiz-adv-x="1779" d="M0 819q0 168 64.5 317.5t176 261t260 176t318.5 64.5q168 0 317.5 -64.5t261 -176t176 -261t64.5 -317.5q0 -170 -64.5 -318.5t-176 -260t-261 -176t-317.5 -64.5q-170 0 -318.5 64.5t-260 176t-176 260t-64.5 318.5zM102 819q0 -147 56.5 -278t154 -228.5t228.5 -154 t278 -56.5q150 0 280 57.5t227 156t153.5 228.5t56.5 275q0 147 -57.5 277.5t-154.5 227.5t-227 154.5t-278 57.5q-145 0 -275 -56.5t-228.5 -153.5t-156 -227t-57.5 -280zM410 973q0 57 38.5 101t96.5 50l-117 119l72 72l217 -217l-31 -33q31 -41 31 -92q0 -63 -45 -108.5 t-109 -45.5q-63 0 -108 45.5t-45 108.5zM512 512v102h614v-102h-102q0 -57 -15.5 -112.5t-42 -98.5t-64.5 -69.5t-83 -26.5t-83 26.5t-64.5 69.5t-42 98.5t-15.5 112.5h-102zM717 512q0 -35 8 -72t22.5 -66.5t33 -48t38.5 -18.5q18 0 36.5 18.5t33 48t24 66.5t9.5 72h-205z M922 973q0 63 47 110l-29 31l217 217l72 -71l-133 -136q55 -6 94 -50t39 -101q0 -63 -45 -108.5t-109 -45.5q-63 0 -108 45.5t-45 108.5z" />
<glyph unicode="U" horiz-adv-x="1779" d="M0 819q0 168 64.5 317.5t176 261t260 176t318.5 64.5q168 0 317.5 -64.5t261 -176t176 -261t64.5 -317.5q0 -170 -64.5 -318.5t-176 -260t-261 -176t-317.5 -64.5q-170 0 -318.5 64.5t-260 176t-176 260t-64.5 318.5zM102 819q0 -147 56.5 -278t154 -228.5t228.5 -154 t278 -56.5q150 0 280 57.5t227 156t153.5 228.5t56.5 275q0 147 -57.5 277.5t-154.5 227.5t-227 154.5t-278 57.5q-145 0 -275 -56.5t-228.5 -153.5t-156 -227t-57.5 -280zM307 870q0 63 45 108.5t109 45.5q63 0 108 -45t45 -109q0 -63 -45 -108t-108 -45t-108.5 45 t-45.5 108zM383 870q0 -31 23.5 -54t54.5 -23t53.5 23.5t22.5 53.5q0 31 -22.5 53.5t-53.5 22.5t-54.5 -22.5t-23.5 -53.5zM627 614v103h385v-103h-385zM922 967q0 51 20.5 97t56 80t81.5 53.5t98 19.5q51 0 97 -19.5t81 -53.5t56.5 -80t21.5 -97q0 -53 -20.5 -98.5 t-55.5 -79t-82 -53t-98 -19.5q-53 0 -99.5 19.5t-81 53t-55 79t-20.5 98.5zM1049 967q0 -51 38.5 -88t90.5 -37q51 0 89 36.5t38 88.5q0 53 -38 89t-89 36t-90 -36t-39 -89z" />
<glyph unicode="V" d="M0 819q0 168 64.5 317.5t176 261t260 176t318.5 64.5q168 0 317.5 -64.5t261 -176t176 -261t64.5 -317.5q0 -170 -64.5 -318.5t-176 -260t-261 -176t-317.5 -64.5q-170 0 -318.5 64.5t-260 176t-176 260t-64.5 318.5zM102 819q0 -147 56.5 -278t154 -228.5t228.5 -154 t278 -56.5q150 0 280 57.5t227 156t153.5 228.5t56.5 275q0 147 -57.5 277.5t-154.5 227.5t-227 154.5t-278 57.5q-145 0 -275 -56.5t-228.5 -153.5t-156 -227t-57.5 -280zM307 819h103q0 -86 31.5 -160.5t87 -130t130 -87t160.5 -31.5q84 0 159 32.5t130 88t88 130 t33 158.5h102q0 -104 -41 -197.5t-110.5 -163t-162.5 -110.5t-198 -41q-106 0 -199.5 40t-163 109.5t-109.5 163t-40 199.5zM410 973q0 61 44 106t105 47l-131 134l72 71l217 -217l-39 -39q39 -45 39 -102q0 -63 -45 -108.5t-109 -45.5q-63 0 -108 45.5t-45 108.5zM922 973 q0 63 47 110l-29 31l217 217l72 -71l-133 -136q55 -6 94 -50t39 -101q0 -63 -45 -108.5t-109 -45.5q-63 0 -108 45.5t-45 108.5z" />
<glyph unicode="W" d="M0 819q0 168 64.5 317.5t176 261t260 176t318.5 64.5q168 0 317.5 -64.5t261 -176t176 -261t64.5 -317.5q0 -170 -64.5 -318.5t-176 -260t-261 -176t-317.5 -64.5q-170 0 -318.5 64.5t-260 176t-176 260t-64.5 318.5zM102 819q0 -297 205 -502q2 104 44 195.5t111.5 159 t162 107.5t194.5 40t194.5 -40t162 -107.5t111.5 -158.5t44 -196q205 205 205 502q0 147 -57.5 277.5t-154.5 227.5t-227 154.5t-278 57.5q-145 0 -275 -56.5t-228.5 -153.5t-156 -227t-57.5 -280zM317 307q205 -205 502 -205t502 205h-92q0 84 -33 159t-88 130t-130 88 t-159 33t-158.5 -33t-130 -88t-88 -130t-32.5 -159h-93zM410 973q0 61 44 106t105 47l-131 134l72 71l217 -217l-39 -39q39 -45 39 -102q0 -63 -45 -108.5t-109 -45.5q-63 0 -108 45.5t-45 108.5zM922 973q0 63 47 110l-29 31l217 217l72 -71l-133 -136q55 -6 94 -50 t39 -101q0 -63 -45 -108.5t-109 -45.5q-63 0 -108 45.5t-45 108.5z" />
<glyph unicode="X" d="M0 819q0 168 64.5 317.5t176 261t260 176t318.5 64.5q168 0 317.5 -64.5t261 -176t176 -261t64.5 -317.5q0 -170 -64.5 -318.5t-176 -260t-261 -176t-317.5 -64.5q-170 0 -318.5 64.5t-260 176t-176 260t-64.5 318.5zM102 819q0 -147 56.5 -278t154 -228.5t228.5 -154 t278 -56.5q150 0 280 57.5t227 156t153.5 228.5t56.5 275q0 147 -57.5 277.5t-154.5 227.5t-227 154.5t-278 57.5q-145 0 -275 -56.5t-228.5 -153.5t-156 -227t-57.5 -280zM307 512v102h1024v-102h-1024zM410 973q0 61 44 106t105 47l-131 134l72 71l217 -217l-39 -39 q39 -45 39 -102q0 -63 -45 -108.5t-109 -45.5q-63 0 -108 45.5t-45 108.5zM922 973q0 63 47 110l-29 31l217 217l72 -71l-133 -136q55 -6 94 -50t39 -101q0 -63 -45 -108.5t-109 -45.5q-63 0 -108 45.5t-45 108.5z" />
<glyph unicode="Y" d="M0 819q0 168 64.5 317.5t176 261t260 176t318.5 64.5q168 0 317.5 -64.5t261 -176t176 -261t64.5 -317.5q0 -170 -64.5 -318.5t-176 -260t-261 -176t-317.5 -64.5q-170 0 -318.5 64.5t-260 176t-176 260t-64.5 318.5zM102 819q0 -147 56.5 -278t154 -228.5t228.5 -154 t278 -56.5q150 0 280 57.5t227 156t153.5 228.5t56.5 275q0 147 -57.5 277.5t-154.5 227.5t-227 154.5t-278 57.5q-145 0 -275 -56.5t-228.5 -153.5t-156 -227t-57.5 -280zM307 717h1024q0 -104 -41 -197.5t-110.5 -163t-162.5 -110.5t-198 -41q-106 0 -199.5 40t-163 109.5 t-109.5 163t-40 199.5zM410 1008q0 53 33.5 95t84.5 54l-100 103l72 71l217 -217l-25 -24q25 -37 25 -82q0 -63 -45 -108.5t-109 -45.5q-63 0 -108 45.5t-45 108.5zM422 614q16 -68 55 -124t92.5 -97t118 -63.5t131.5 -22.5q68 0 132.5 22.5t117.5 63.5t92 97.5t56 123.5 h-795zM922 1008q0 57 39 102l-21 20l217 218l72 -72l-119 -119q51 -12 85 -54t34 -95q0 -63 -45 -108.5t-109 -45.5q-63 0 -108 45.5t-45 108.5z" />
<glyph unicode="Z" d="M0 819q0 168 64.5 317.5t176 261t260 176t318.5 64.5q168 0 317.5 -64.5t261 -176t176 -261t64.5 -317.5q0 -170 -64.5 -318.5t-176 -260t-261 -176t-317.5 -64.5q-170 0 -318.5 64.5t-260 176t-176 260t-64.5 318.5zM102 819q0 -147 56.5 -278t154 -228.5t228.5 -154 t278 -56.5q150 0 280 57.5t227 156t153.5 228.5t56.5 275q0 147 -57.5 277.5t-154.5 227.5t-227 154.5t-278 57.5q-145 0 -275 -56.5t-228.5 -153.5t-156 -227t-57.5 -280zM410 512v102h819v-102q0 -57 -15.5 -112.5t-42 -98.5t-64.5 -69.5t-83 -26.5t-83 26.5t-64.5 69.5 t-42 98.5t-15.5 112.5h-409zM410 922v102h307v-102h-307zM922 512q0 -35 8 -72t22.5 -66.5t33 -48t38.5 -18.5q18 0 36.5 18.5t33 48t23.5 66.5t9 72h-204zM922 922v102h307v-102h-307z" />
<glyph unicode="[" d="M0 819q0 168 64.5 317.5t176 261t260 176t318.5 64.5q168 0 317.5 -64.5t261 -176t176 -261t64.5 -317.5q0 -170 -64.5 -318.5t-176 -260t-261 -176t-317.5 -64.5q-170 0 -318.5 64.5t-260 176t-176 260t-64.5 318.5zM102 819q0 -147 56.5 -278t154 -228.5t228.5 -154 t278 -56.5q150 0 280 57.5t227 156t153.5 228.5t56.5 275q0 147 -57.5 277.5t-154.5 227.5t-227 154.5t-278 57.5q-145 0 -275 -56.5t-228.5 -153.5t-156 -227t-57.5 -280zM307 614v103h1024v-103h-102l-103 -204l-102 204h-410l-102 -204l-102 204h-103zM410 973 q0 61 44 106t105 47l-131 134l72 71l217 -217l-39 -39q39 -45 39 -102q0 -63 -45 -108.5t-109 -45.5q-63 0 -108 45.5t-45 108.5zM922 973q0 63 47 110l-29 31l217 217l72 -71l-133 -136q55 -6 94 -50t39 -101q0 -63 -45 -108.5t-109 -45.5q-63 0 -108 45.5t-45 108.5z" />
<glyph unicode="\" d="M0 819q0 168 64.5 317.5t176 261t260 176t318.5 64.5q168 0 317.5 -64.5t261 -176t176 -261t64.5 -317.5q0 -170 -64.5 -318.5t-176 -260t-261 -176t-317.5 -64.5q-170 0 -318.5 64.5t-260 176t-176 260t-64.5 318.5zM102 819q0 -147 56.5 -278t154 -228.5t228.5 -154 t278 -56.5q150 0 280 57.5t227 156t153.5 228.5t56.5 275q0 147 -57.5 277.5t-154.5 227.5t-227 154.5t-278 57.5q-145 0 -275 -56.5t-228.5 -153.5t-156 -227t-57.5 -280zM410 973q0 63 45 108t108 45t108.5 -45t45.5 -108t-45 -108.5t-109 -45.5q-63 0 -108 45.5 t-45 108.5zM469 293l709 409l51 -88l-709 -409zM922 973q0 63 45 108t108 45t108.5 -45t45.5 -108t-45 -108.5t-109 -45.5q-63 0 -108 45.5t-45 108.5z" />
<glyph unicode="]" horiz-adv-x="1775" d="M0 815q0 309 205 539v481l336 -252q141 47 274 47q125 0 260 -41l369 246l-27 -469q213 -238 213 -551q0 -166 -64.5 -314.5t-175 -260t-259 -176t-316.5 -64.5t-316.5 64.5t-259 175t-175 259t-64.5 316.5zM102 815q0 -147 56.5 -276t154 -226.5t226.5 -154t276 -56.5 t277.5 56.5t227.5 154t153.5 227.5t56.5 275t-57.5 275.5t-154.5 227.5t-227 154.5t-276 57.5q-145 0 -275 -56.5t-227.5 -153.5t-154 -227.5t-56.5 -277.5zM305 696h1020q0 -104 -41 -196t-109.5 -161t-161.5 -110t-198 -41q-104 0 -197.5 41t-162 110t-109.5 161t-41 196z M408 985q0 53 33.5 95t84.5 55l-100 102l72 72l215 -217l-23 -23q23 -41 23 -84q0 -61 -45 -106t-107 -45q-63 0 -108 45t-45 106zM420 596q16 -68 54 -124t90 -97t116.5 -63.5t134.5 -22.5q68 0 132.5 22.5t117.5 63.5t91 97t54 124h-88l-102 -205l-102 205h-205l-101 -205 l-102 205h-90zM918 985q0 63 38 102l-20 23l215 215l72 -72l-117 -118q51 -12 84 -54.5t33 -95.5q0 -61 -45 -106t-107 -45q-63 0 -108 45t-45 106z" />
<glyph unicode="^" d="M0 819q0 168 64.5 317.5t176 261t260 176t318.5 64.5q168 0 317.5 -64.5t261 -176t176 -261t64.5 -317.5q0 -170 -64.5 -318.5t-176 -260t-261 -176t-317.5 -64.5q-170 0 -318.5 64.5t-260 176t-176 260t-64.5 318.5zM102 819q0 -147 56.5 -278t154 -228.5t228.5 -154 t278 -56.5q150 0 280 57.5t227 156t153.5 228.5t56.5 275q0 147 -57.5 277.5t-154.5 227.5t-227 154.5t-278 57.5q-145 0 -275 -56.5t-228.5 -153.5t-156 -227t-57.5 -280zM307 922q0 57 15.5 112.5t42 98.5t64.5 69.5t83 26.5t83 -26.5t64.5 -69.5t42 -98.5t15.5 -112.5 h-103q0 33 -8 69.5t-22.5 66t-33 49t-38.5 19.5t-38.5 -19.5t-33 -49t-22.5 -66.5t-8 -69h-103zM512 512v102h614v-102h-614zM922 922q0 57 15 112.5t42 98.5t64.5 69.5t82.5 26.5t83 -26.5t64.5 -69.5t42 -98.5t15.5 -112.5h-102q0 33 -8.5 69.5t-22.5 66t-32.5 49 t-39.5 19.5q-20 0 -38.5 -19.5t-33 -49t-22.5 -66.5t-8 -69h-102z" />
<glyph unicode="_" horiz-adv-x="1779" d="M0 819q0 168 64.5 317.5t176 261t260 176t318.5 64.5q168 0 317.5 -64.5t261 -176t176 -261t64.5 -317.5q0 -170 -64.5 -318.5t-176 -260t-261 -176t-317.5 -64.5q-170 0 -318.5 64.5t-260 176t-176 260t-64.5 318.5zM102 819q0 -147 56.5 -278t154 -228.5t228.5 -154 t278 -56.5q150 0 280 57.5t227 156t153.5 228.5t56.5 275q0 147 -57.5 277.5t-154.5 227.5t-227 154.5t-278 57.5q-145 0 -275 -56.5t-228.5 -153.5t-156 -227t-57.5 -280zM307 870q0 63 45 108.5t109 45.5q63 0 108 -45t45 -109q0 -63 -45 -108t-108 -45t-108.5 45 t-45.5 108zM383 870q0 -31 23.5 -54t54.5 -23t53.5 23.5t22.5 53.5q0 31 -22.5 53.5t-53.5 22.5t-54.5 -22.5t-23.5 -53.5zM627 614v103h385v-103h-385zM922 967q0 51 20.5 97t56 80t81.5 53.5t98 19.5q51 0 97 -19.5t81 -53.5t56.5 -80t21.5 -97q0 -53 -20.5 -98.5 t-55.5 -79t-82 -53t-98 -19.5q-53 0 -99.5 19.5t-81 53t-55 79t-20.5 98.5zM1049 967q0 -51 38.5 -88t90.5 -37q51 0 89 36.5t38 88.5q0 53 -38 89t-89 36t-90 -36t-39 -89z" />
<glyph unicode="a" d="M0 819q0 168 64.5 317.5t176 261t260 176t318.5 64.5q168 0 317.5 -64.5t261 -176t176 -261t64.5 -317.5q0 -170 -64.5 -318.5t-176 -260t-261 -176t-317.5 -64.5q-170 0 -318.5 64.5t-260 176t-176 260t-64.5 318.5zM102 819q0 -147 56.5 -278t154 -228.5t228.5 -154 t278 -56.5q150 0 280 57.5t227 156t153.5 228.5t56.5 275q0 147 -57.5 277.5t-154.5 227.5t-227 154.5t-278 57.5q-145 0 -275 -56.5t-228.5 -153.5t-156 -227t-57.5 -280zM410 922v102h307v-102h-307zM512 512v102h614v-102h-102q0 -57 -15.5 -112.5t-42 -98.5t-64.5 -69.5 t-83 -26.5t-83 26.5t-64.5 69.5t-42 98.5t-15.5 112.5h-102zM717 512q0 -35 8 -72t22.5 -66.5t33 -48t38.5 -18.5q18 0 36.5 18.5t33 48t24 66.5t9.5 72h-205zM922 922v102h307v-102h-307z" />
<glyph unicode="b" d="M0 819q0 168 64.5 317.5t176 261t260 176t318.5 64.5q168 0 317.5 -64.5t261 -176t176 -261t64.5 -317.5q0 -170 -64.5 -318.5t-176 -260t-261 -176t-317.5 -64.5q-170 0 -318.5 64.5t-260 176t-176 260t-64.5 318.5zM102 819q0 -147 56.5 -278t154 -228.5t228.5 -154 t278 -56.5q150 0 280 57.5t227 156t153.5 228.5t56.5 275q0 147 -57.5 277.5t-154.5 227.5t-227 154.5t-278 57.5q-145 0 -275 -56.5t-228.5 -153.5t-156 -227t-57.5 -280zM410 922v102h307v-102h-307zM614 512v102h410v-102h-410zM922 922v102h307v-102h-307z" />
<glyph unicode="c" d="M0 819q0 168 64.5 317.5t176 261t260 176t318.5 64.5q168 0 317.5 -64.5t261 -176t176 -261t64.5 -317.5q0 -170 -64.5 -318.5t-176 -260t-261 -176t-317.5 -64.5q-170 0 -318.5 64.5t-260 176t-176 260t-64.5 318.5zM102 819q0 -147 56.5 -278t154 -228.5t228.5 -154 t278 -56.5q150 0 280 57.5t227 156t153.5 228.5t56.5 275q0 147 -57.5 277.5t-154.5 227.5t-227 154.5t-278 57.5q-145 0 -275 -56.5t-228.5 -153.5t-156 -227t-57.5 -280zM307 819h103q0 -86 31.5 -160.5t87 -130t130 -87t160.5 -31.5q84 0 159 32.5t130 88t88 130 t33 158.5h102q0 -104 -41 -197.5t-110.5 -163t-162.5 -110.5t-198 -41q-106 0 -199.5 40t-163 109.5t-109.5 163t-40 199.5zM410 973q0 63 45 108t108 45t108.5 -45t45.5 -108t-45 -108.5t-109 -45.5q-63 0 -108 45.5t-45 108.5zM428 1198l217 217l72 -72l-217 -217z M922 973q0 63 45 108t108 45t108.5 -45t45.5 -108t-45 -108.5t-109 -45.5q-63 0 -108 45.5t-45 108.5zM940 1343l72 72l217 -217l-72 -72z" />
<glyph unicode="d" d="M0 819q0 168 64.5 317.5t176 261t260 176t318.5 64.5q168 0 317.5 -64.5t261 -176t176 -261t64.5 -317.5q0 -170 -64.5 -318.5t-176 -260t-261 -176t-317.5 -64.5q-170 0 -318.5 64.5t-260 176t-176 260t-64.5 318.5zM102 819q0 -297 205 -502q2 104 44 195.5t111.5 159 t162 107.5t194.5 40t194.5 -40t162 -107.5t111.5 -158.5t44 -196q205 205 205 502q0 117 -38 226.5t-105.5 199.5t-161.5 157.5t-207 102.5l186 -186l-71 -72l-217 217l55 54q-78 18 -158 18q-96 0 -172 -20l51 -52l-217 -217l-71 72l178 178q-109 -37 -198 -105.5 t-153.5 -157.5t-99.5 -195.5t-35 -219.5zM317 307q205 -205 502 -205t502 205h-92q0 84 -33 159t-88 130t-130 88t-159 33t-158.5 -33t-130 -88t-88 -130t-32.5 -159h-93zM410 973q0 63 45 108t108 45t108.5 -45t45.5 -108t-45 -108.5t-109 -45.5q-63 0 -108 45.5t-45 108.5 zM922 973q0 63 45 108t108 45t108.5 -45t45.5 -108t-45 -108.5t-109 -45.5q-63 0 -108 45.5t-45 108.5z" />
<glyph unicode="e" d="M0 819q0 168 64.5 317.5t176 261t260 176t318.5 64.5q168 0 317.5 -64.5t261 -176t176 -261t64.5 -317.5q0 -170 -64.5 -318.5t-176 -260t-261 -176t-317.5 -64.5q-170 0 -318.5 64.5t-260 176t-176 260t-64.5 318.5zM102 819q0 -147 56.5 -278t154 -228.5t228.5 -154 t278 -56.5q150 0 280 57.5t227 156t153.5 228.5t56.5 275q0 147 -57.5 277.5t-154.5 227.5t-227 154.5t-278 57.5q-145 0 -275 -56.5t-228.5 -153.5t-156 -227t-57.5 -280zM410 512v102h819v-102h-819zM410 973q0 63 45 108t108 45t108.5 -45t45.5 -108t-45 -108.5 t-109 -45.5q-63 0 -108 45.5t-45 108.5zM428 1198l217 217l72 -72l-217 -217zM922 973q0 63 45 108t108 45t108.5 -45t45.5 -108t-45 -108.5t-109 -45.5q-63 0 -108 45.5t-45 108.5zM940 1343l72 72l217 -217l-72 -72z" />
<glyph unicode="f" d="M0 819q0 168 64.5 317.5t176 261t260 176t318.5 64.5q168 0 317.5 -64.5t261 -176t176 -261t64.5 -317.5q0 -170 -64.5 -318.5t-176 -260t-261 -176t-317.5 -64.5q-170 0 -318.5 64.5t-260 176t-176 260t-64.5 318.5zM102 819q0 -147 56.5 -278t154 -228.5t228.5 -154 t278 -56.5q150 0 280 57.5t227 156t153.5 228.5t56.5 275q0 147 -57.5 277.5t-154.5 227.5t-227 154.5t-278 57.5q-145 0 -275 -56.5t-228.5 -153.5t-156 -227t-57.5 -280zM307 717h1024q0 -104 -41 -197.5t-110.5 -163t-162.5 -110.5t-198 -41q-106 0 -199.5 40t-163 109.5 t-109.5 163t-40 199.5zM397 991q0 61 46 107.5t108 46.5q63 0 108.5 -46t45.5 -108q0 -63 -45.5 -108t-108.5 -45q-61 0 -107.5 45t-46.5 108zM416 1217l217 217l72 -72l-218 -217zM422 614q16 -68 55 -124t92.5 -97t118 -63.5t131.5 -22.5q68 0 132.5 22.5t117.5 63.5 t92 97.5t56 123.5h-795zM909 991q0 61 46 107.5t108 46.5q63 0 108.5 -46t45.5 -108q0 -63 -45.5 -108t-108.5 -45q-61 0 -107.5 45t-46.5 108zM928 1362l71 72l218 -217l-72 -72z" />
<glyph unicode="g" d="M0 819q0 168 64.5 317.5t176 261t260 176t318.5 64.5q168 0 317.5 -64.5t261 -176t176 -261t64.5 -317.5q0 -170 -64.5 -318.5t-176 -260t-261 -176t-317.5 -64.5q-170 0 -318.5 64.5t-260 176t-176 260t-64.5 318.5zM102 819q0 -147 56.5 -278t154 -228.5t228.5 -154 t278 -56.5q150 0 280 57.5t227 156t153.5 228.5t56.5 275q0 147 -57.5 277.5t-154.5 227.5t-227 154.5t-278 57.5q-145 0 -275 -56.5t-228.5 -153.5t-156 -227t-57.5 -280zM307 717h1024q0 -104 -41 -197.5t-110.5 -163t-162.5 -110.5t-198 -41q-106 0 -199.5 40t-163 109.5 t-109.5 163t-40 199.5zM307 1024q0 43 15.5 80t43 64.5t65.5 44t81 16.5q86 0 145.5 -59.5t59.5 -145.5q0 -43 -16.5 -81t-44 -65.5t-64.5 -43t-80 -15.5q-88 0 -146.5 58.5t-58.5 146.5zM410 1024q0 -43 29.5 -72.5t72.5 -29.5t72.5 29.5t29.5 72.5t-29.5 72.5t-72.5 29.5 t-72.5 -29.5t-29.5 -72.5zM422 614q16 -68 55 -124t92.5 -97t118 -63.5t131.5 -22.5q68 0 132.5 22.5t117.5 63.5t92 97.5t56 123.5h-795zM922 1024q0 43 15 80t43 64.5t65.5 44t80.5 16.5q86 0 145.5 -59.5t59.5 -145.5q0 -43 -16.5 -81t-44 -65.5t-64.5 -43t-80 -15.5 q-88 0 -146 58.5t-58 146.5zM1024 1024q0 -43 29.5 -72.5t72.5 -29.5t73 29.5t30 72.5t-30 72.5t-73 29.5t-72.5 -29.5t-29.5 -72.5z" />
<glyph unicode="h" horiz-adv-x="1763" d="M0 815q0 119 34 229.5t95 207t148.5 174t193.5 128.5l-63 64l217 217l71 -72l-194 -194q150 61 313 61q156 0 285 -51l-182 184l71 72l217 -217l-59 -57q111 -49 200 -127t151.5 -176.5t97 -211t34.5 -231.5q0 -166 -64.5 -314.5t-175 -260t-259 -176t-316.5 -64.5 t-316.5 64.5t-259 175t-175 259t-64.5 316.5zM102 815q0 -147 56.5 -276t154 -226.5t226.5 -154t276 -56.5t277.5 56.5t227.5 154t153.5 227.5t56.5 275t-57.5 275.5t-154.5 227.5t-227 154.5t-276 57.5q-145 0 -275 -56.5t-227.5 -153.5t-154 -227.5t-56.5 -277.5zM408 969 q0 63 45 108t108 45q61 0 106.5 -45t45.5 -108t-45 -108.5t-107 -45.5q-63 0 -108 45.5t-45 108.5zM713 510q0 41 30.5 71.5t71.5 30.5q43 0 73 -30.5t30 -71.5q0 -43 -30 -72.5t-73 -29.5q-41 0 -71.5 29.5t-30.5 72.5zM918 969q0 63 45 108t108 45q61 0 106.5 -45 t45.5 -108t-45 -108.5t-107 -45.5q-63 0 -108 45.5t-45 108.5z" />
<glyph unicode="i" d="M0 819q0 168 64.5 317.5t176 261t260 176t318.5 64.5q168 0 317.5 -64.5t261 -176t176 -261t64.5 -317.5q0 -170 -64.5 -318.5t-176 -260t-261 -176t-317.5 -64.5q-170 0 -318.5 64.5t-260 176t-176 260t-64.5 318.5zM102 819q0 -147 56.5 -278t154 -228.5t228.5 -154 t278 -56.5q203 0 375 105q-121 14 -219 115l14 14q-92 -29 -170 -29q-106 0 -199.5 40t-163 109.5t-109.5 163t-40 199.5h103q0 -86 31.5 -160.5t87 -130t130 -87t160.5 -31.5q84 0 159 32.5t130 88t88 130t33 158.5h102q0 -123 -51 -223q98 -111 100 -221q156 193 156 444 q0 147 -57.5 277.5t-154.5 227.5t-227 154.5t-278 57.5q-145 0 -275 -56.5t-228.5 -153.5t-156 -227t-57.5 -280zM393 1098q0 53 32 90t83 37q84 0 102 -78q35 78 103 78q106 0 106 -119q0 -10 -28.5 -44t-62.5 -75t-61.5 -84t-27.5 -72q0 -4 1 -6t1 -6q-82 55 -131 91 t-74.5 65t-34 56.5t-8.5 66.5zM819 1110q0 51 33 85t84 34q84 0 102 -72q35 72 103 72q47 0 81.5 -33t34.5 -78q0 -41 -24.5 -90t-62 -97t-84 -89t-91.5 -64q-10 20 -15 34.5t-15.5 35t-32 53.5t-66.5 92q-47 66 -47 117zM1071 373q84 -66 154 -66q55 0 55 55q0 66 -57 142 q-60 -74 -152 -131z" />
<glyph unicode="j" d="M0 819q0 168 64.5 317.5t176 261t260 176t318.5 64.5q168 0 317.5 -64.5t261 -176t176 -261t64.5 -317.5q0 -170 -64.5 -318.5t-176 -260t-261 -176t-317.5 -64.5q-170 0 -318.5 64.5t-260 176t-176 260t-64.5 318.5zM102 819q0 -147 56.5 -278t154 -228.5t228.5 -154 t278 -56.5q150 0 280 57.5t227 156t153.5 228.5t56.5 275q0 147 -57.5 277.5t-154.5 227.5t-227 154.5t-278 57.5q-145 0 -275 -56.5t-228.5 -153.5t-156 -227t-57.5 -280zM307 819h103q0 -86 31.5 -160.5t87 -130t130 -87t160.5 -31.5q84 0 159 32.5t130 88t88 130 t33 158.5h102q0 -104 -41 -197.5t-110.5 -163t-162.5 -110.5t-198 -41q-106 0 -199.5 40t-163 109.5t-109.5 163t-40 199.5zM307 922q0 57 15.5 112.5t42 98.5t64.5 69.5t83 26.5t83 -26.5t64.5 -69.5t42 -98.5t15.5 -112.5h-103q0 33 -8 69.5t-22.5 66t-33 49t-38.5 19.5 t-38.5 -19.5t-33 -49t-22.5 -66.5t-8 -69h-103zM922 922q0 57 15 112.5t42 98.5t64.5 69.5t82.5 26.5t83 -26.5t64.5 -69.5t42 -98.5t15.5 -112.5h-102q0 33 -8.5 69.5t-22.5 66t-32.5 49t-39.5 19.5q-20 0 -38.5 -19.5t-33 -49t-22.5 -66.5t-8 -69h-102z" />
<glyph unicode="k" d="M0 819q0 168 64.5 317.5t176 261t260 176t318.5 64.5q168 0 317.5 -64.5t261 -176t176 -261t64.5 -317.5q0 -170 -64.5 -318.5t-176 -260t-261 -176t-317.5 -64.5q-170 0 -318.5 64.5t-260 176t-176 260t-64.5 318.5zM102 819q0 -297 205 -502q2 104 44 195.5t111.5 159 t162 107.5t194.5 40t194.5 -40t162 -107.5t111.5 -158.5t44 -196q205 205 205 502q0 147 -57.5 277.5t-154.5 227.5t-227 154.5t-278 57.5q-145 0 -275 -56.5t-228.5 -153.5t-156 -227t-57.5 -280zM307 922q0 57 15.5 112.5t42 98.5t64.5 69.5t83 26.5t83 -26.5t64.5 -69.5 t42 -98.5t15.5 -112.5h-103q0 33 -8 69.5t-22.5 66t-33 49t-38.5 19.5t-38.5 -19.5t-33 -49t-22.5 -66.5t-8 -69h-103zM317 307q205 -205 502 -205t502 205h-92q0 84 -33 159t-88 130t-130 88t-159 33t-158.5 -33t-130 -88t-88 -130t-32.5 -159h-93zM922 922q0 57 15 112.5 t42 98.5t64.5 69.5t82.5 26.5t83 -26.5t64.5 -69.5t42 -98.5t15.5 -112.5h-102q0 33 -8.5 69.5t-22.5 66t-32.5 49t-39.5 19.5q-20 0 -38.5 -19.5t-33 -49t-22.5 -66.5t-8 -69h-102z" />
<glyph unicode="l" d="M0 819q0 168 64.5 317.5t176 261t260 176t318.5 64.5q168 0 317.5 -64.5t261 -176t176 -261t64.5 -317.5q0 -170 -64.5 -318.5t-176 -260t-261 -176t-317.5 -64.5q-170 0 -318.5 64.5t-260 176t-176 260t-64.5 318.5zM102 819q0 -147 56.5 -278t154 -228.5t228.5 -154 t278 -56.5q150 0 280 57.5t227 156t153.5 228.5t56.5 275q0 147 -57.5 277.5t-154.5 227.5t-227 154.5t-278 57.5q-145 0 -275 -56.5t-228.5 -153.5t-156 -227t-57.5 -280zM307 922q0 57 15.5 112.5t42 98.5t64.5 69.5t83 26.5t83 -26.5t64.5 -69.5t42 -98.5t15.5 -112.5 h-103q0 33 -8 69.5t-22.5 66t-33 49t-38.5 19.5t-38.5 -19.5t-33 -49t-22.5 -66.5t-8 -69h-103zM512 512v102h614v-102h-614zM922 922q0 57 15 112.5t42 98.5t64.5 69.5t82.5 26.5t83 -26.5t64.5 -69.5t42 -98.5t15.5 -112.5h-102q0 33 -8.5 69.5t-22.5 66t-32.5 49 t-39.5 19.5q-20 0 -38.5 -19.5t-33 -49t-22.5 -66.5t-8 -69h-102z" />
<glyph unicode="m" d="M0 819q0 168 64.5 317.5t176 261t260 176t318.5 64.5q168 0 317.5 -64.5t261 -176t176 -261t64.5 -317.5q0 -170 -64.5 -318.5t-176 -260t-261 -176t-317.5 -64.5q-170 0 -318.5 64.5t-260 176t-176 260t-64.5 318.5zM102 819q0 -147 56.5 -278t154 -228.5t228.5 -154 t278 -56.5q150 0 280 57.5t227 156t153.5 228.5t56.5 275q0 147 -57.5 277.5t-154.5 227.5t-227 154.5t-278 57.5q-145 0 -275 -56.5t-228.5 -153.5t-156 -227t-57.5 -280zM307 717h1024q0 -104 -41 -197.5t-110.5 -163t-162.5 -110.5t-198 -41q-106 0 -199.5 40t-163 109.5 t-109.5 163t-40 199.5zM307 903q0 57 15.5 112.5t42 98.5t64.5 69.5t83 26.5t83 -26.5t64.5 -69.5t42 -98t15.5 -113h-103q0 33 -8 70t-22.5 66.5t-33 49t-38.5 19.5t-38.5 -19.5t-33 -49t-22.5 -66.5t-8 -70h-103zM422 614q16 -68 55 -124t92.5 -97t118 -63.5t131.5 -22.5 q68 0 132.5 22.5t117.5 63.5t92 97.5t56 123.5h-795zM922 903q0 57 15 112.5t42 98.5t64.5 69.5t82.5 26.5t83 -26.5t64.5 -69.5t42 -98t15.5 -113h-102q0 33 -8.5 70t-22.5 66.5t-32.5 49t-39.5 19.5q-20 0 -38.5 -19.5t-33 -49t-22.5 -66.5t-8 -70h-102z" />
<glyph unicode="n" d="M0 819q0 168 64.5 317.5t176 261t260 176t318.5 64.5q168 0 317.5 -64.5t261 -176t176 -261t64.5 -317.5q0 -170 -64.5 -318.5t-176 -260t-261 -176t-317.5 -64.5q-170 0 -318.5 64.5t-260 176t-176 260t-64.5 318.5zM102 819q0 -297 205 -502q2 104 44 195.5t111.5 159 t162 107.5t194.5 40t194.5 -40t162 -107.5t111.5 -158.5t44 -196q205 205 205 502q0 147 -57.5 277.5t-154.5 227.5t-227 154.5t-278 57.5q-145 0 -275 -56.5t-228.5 -153.5t-156 -227t-57.5 -280zM307 922q0 57 15.5 112.5t42 98.5t64.5 69.5t83 26.5t83 -26.5t64.5 -69.5 t42 -98.5t15.5 -112.5h-103q0 33 -8 69.5t-22.5 66t-33 49t-38.5 19.5t-38.5 -19.5t-33 -49t-22.5 -66.5t-8 -69h-103zM317 307q205 -205 502 -205t502 205h-1004zM422 410h795q-16 66 -55.5 122t-92.5 97t-117.5 64.5t-132.5 23.5t-132 -22.5t-117.5 -63.5t-92.5 -97 t-55 -124zM922 922q0 57 15 112.5t42 98.5t64.5 69.5t82.5 26.5t83 -26.5t64.5 -69.5t42 -98.5t15.5 -112.5h-102q0 33 -8.5 69.5t-22.5 66t-32.5 49t-39.5 19.5q-20 0 -38.5 -19.5t-33 -49t-22.5 -66.5t-8 -69h-102z" />
<glyph unicode="o" d="M0 819q0 168 64.5 317.5t176 261t260 176t318.5 64.5q168 0 317.5 -64.5t261 -176t176 -261t64.5 -317.5q0 -170 -64.5 -318.5t-176 -260t-261 -176t-317.5 -64.5q-170 0 -318.5 64.5t-260 176t-176 260t-64.5 318.5zM102 819q0 -147 56.5 -278t154 -228.5t228.5 -154 t278 -56.5q150 0 280 57.5t227 156t153.5 228.5t56.5 275q0 147 -57.5 277.5t-154.5 227.5t-227 154.5t-278 57.5q-145 0 -275 -56.5t-228.5 -153.5t-156 -227t-57.5 -280zM410 973q0 63 45 108t108 45t108.5 -45t45.5 -108t-45 -108.5t-109 -45.5q-63 0 -108 45.5 t-45 108.5zM428 1198l217 217l72 -72l-217 -217zM614 512q0 43 15.5 80t43 64.5t65.5 44t81 16.5q86 0 145.5 -59.5t59.5 -145.5q0 -43 -16.5 -81t-44 -65.5t-64.5 -43t-80 -15.5q-88 0 -146.5 58.5t-58.5 146.5zM922 973q0 63 45 108t108 45t108.5 -45t45.5 -108 t-45 -108.5t-109 -45.5q-63 0 -108 45.5t-45 108.5zM940 1343l72 72l217 -217l-72 -72z" />
<glyph unicode="p" horiz-adv-x="1761" d="M0 815q0 119 34 229.5t95 207t148.5 174t193.5 128.5l-63 64l217 217l71 -72l-194 -194q150 61 313 61q156 0 285 -51l-182 184l71 72l217 -217l-59 -57q111 -49 200 -127t151.5 -176.5t97 -211t34.5 -231.5q0 -166 -64.5 -314.5t-175 -260t-259 -176t-316.5 -64.5 t-316.5 64.5t-259 175t-175 259t-64.5 316.5zM102 815q0 -147 56.5 -276t154 -226.5t226.5 -154t276 -56.5q207 0 375 107l-33 -2q-115 0 -227 112q-49 -14 -115 -14q-104 0 -197.5 41t-162 109.5t-109.5 162t-41 197.5h103q0 -84 31.5 -158.5t87 -130t130 -87t158.5 -31.5 q82 0 157 32.5t130 88t88 129t33 157.5h102q0 -135 -68 -254q72 -96 72 -194q0 -29 -6 -54q207 213 207 502q0 145 -57.5 275.5t-154.5 227.5t-227 154.5t-276 57.5q-145 0 -275 -56.5t-227.5 -153.5t-154 -227.5t-56.5 -277.5zM510 985q0 63 45 108.5t109 45.5 q61 0 106 -45t45 -109q0 63 45 108.5t109 45.5q63 0 108 -45t45 -109q0 -61 -45 -106t-108 -45t-108.5 45t-45.5 106q0 -61 -45 -106t-106 -45q-63 0 -108.5 45t-45.5 106zM1042 358q74 -49 132 -49q55 0 55 56q0 43 -37 108q-68 -74 -150 -115z" />
<glyph unicode="q" d="M0 819q0 168 64.5 317.5t176 261t260 176t318.5 64.5q168 0 317.5 -64.5t261 -176t176 -261t64.5 -317.5q0 -170 -64.5 -318.5t-176 -260t-261 -176t-317.5 -64.5q-170 0 -318.5 64.5t-260 176t-176 260t-64.5 318.5zM102 819q0 -147 56.5 -278t154 -228.5t228.5 -154 t278 -56.5q150 0 280 57.5t227 156t153.5 228.5t56.5 275q0 147 -57.5 277.5t-154.5 227.5t-227 154.5t-278 57.5q-145 0 -275 -56.5t-228.5 -153.5t-156 -227t-57.5 -280zM307 819h51q-51 63 -51 154q0 53 20.5 100t56.5 82t82 54.5t97 19.5t98.5 -20.5t82 -55.5t55 -82 t20.5 -98q0 53 20.5 100t56.5 82t82 54.5t97 19.5t98.5 -20.5t82 -55.5t55 -82t20.5 -98q0 -90 -51 -154h51q0 -104 -41 -197.5t-110.5 -163t-162.5 -110.5t-198 -41q-106 0 -199.5 40t-163 109.5t-109.5 163t-40 199.5zM414 766q10 -78 46 -143.5t90 -112.5t122.5 -73.5 t146.5 -26.5q76 0 145.5 27.5t124 74.5t90 112.5t46.5 141.5q-68 -49 -150 -49q-53 0 -100 19.5t-82 54t-54.5 82t-19.5 100.5q0 -51 -19.5 -97.5t-54 -82t-82 -56t-100.5 -20.5q-81 0 -149 49zM434 973q0 -53 38 -91t91 -38t90 38t37 91t-37 90t-90 37t-91 -37t-38 -90z M946 973q0 -53 38 -91t91 -38t90 38t37 91t-37 90t-90 37t-91 -37t-38 -90z" />
<glyph unicode="r" d="M0 819q0 209 102 398v12h9q53 94 129.5 170t170 129t197 81.5t211.5 28.5q106 0 211 -28.5t198 -81.5t170 -129t130 -170h8v-12q102 -188 102 -398q0 -170 -64.5 -318.5t-176 -260t-261 -176t-317.5 -64.5q-170 0 -318.5 64.5t-260 176t-176 260t-64.5 318.5zM102 819 q0 -147 56.5 -278t154 -228.5t228.5 -154t278 -56.5q150 0 280 57.5t227 156t153.5 228.5t56.5 275q0 170 -70 307h-135v-102q0 -45 -21.5 -82t-57 -64.5t-82 -43t-95.5 -15.5t-95 15.5t-82 43t-57.5 64.5t-21.5 82q0 -45 -21.5 -82t-57 -64.5t-82 -43t-95.5 -15.5t-95 15.5 t-82 43t-57.5 64.5t-21.5 82v102h-135q-70 -137 -70 -307zM231 1229h1176q-100 143 -257 225t-331 82t-331 -82t-257 -225zM307 819h103q0 -86 31.5 -160.5t87 -130t130 -87t160.5 -31.5q84 0 159 32.5t130 88t88 130t33 158.5h102q0 -104 -41 -197.5t-110.5 -163 t-162.5 -110.5t-198 -41q-106 0 -199.5 40t-163 109.5t-109.5 163t-40 199.5z" />
<glyph unicode="s" d="M0 819q0 168 64.5 317.5t176 261t260 176t318.5 64.5q168 0 317.5 -64.5t261 -176t176 -261t64.5 -317.5q0 -170 -64.5 -318.5t-176 -260t-261 -176t-317.5 -64.5q-170 0 -318.5 64.5t-260 176t-176 260t-64.5 318.5zM102 819q0 -147 56.5 -278t154 -228.5t228.5 -154 t278 -56.5q150 0 280 57.5t227 156t153.5 228.5t56.5 275q0 147 -57.5 277.5t-154.5 227.5t-227 154.5t-278 57.5q-145 0 -275 -56.5t-228.5 -153.5t-156 -227t-57.5 -280zM410 512v102h819v-102h-819zM410 973q0 61 44 106t105 47l-131 134l72 71l217 -217l-39 -39 q39 -45 39 -102q0 -63 -45 -108.5t-109 -45.5q-63 0 -108 45.5t-45 108.5zM922 973q0 63 45 108t108 45t108.5 -45t45.5 -108t-45 -108.5t-109 -45.5q-63 0 -108 45.5t-45 108.5zM922 1229v102h307v-102h-307z" />
<glyph unicode="t" d="M0 819q0 168 64.5 317.5t176 261t260 176t318.5 64.5q168 0 317.5 -64.5t261 -176t176 -261t64.5 -317.5q0 -170 -64.5 -318.5t-176 -260t-261 -176t-317.5 -64.5q-170 0 -318.5 64.5t-260 176t-176 260t-64.5 318.5zM102 819q0 -147 56.5 -278t154 -228.5t228.5 -154 t278 -56.5q150 0 280 57.5t227 156t153.5 228.5t56.5 275q0 147 -57.5 277.5t-154.5 227.5t-227 154.5t-278 57.5q-145 0 -275 -56.5t-228.5 -153.5t-156 -227t-57.5 -280zM307 752h1024q0 -104 -41 -197.5t-110.5 -163t-162.5 -110.5t-198 -41q-106 0 -199.5 39.5 t-163 109.5t-109.5 163.5t-40 199.5zM307 1030q0 51 20.5 98.5t55.5 82t81 55t99 20.5t100.5 -21.5t82 -56t54 -81t19.5 -97.5q0 51 20.5 98.5t55.5 82t81 55t99 20.5t100.5 -21.5t82 -56t54 -81t19.5 -97.5t-19.5 -97t-54 -82t-82 -56.5t-100.5 -20.5t-100 19.5t-82 54.5 t-54.5 82t-19.5 100q0 -51 -19.5 -97t-54 -82t-82 -56.5t-100.5 -20.5t-100 19.5t-82 54.5t-54.5 82t-19.5 100zM422 649q16 -68 55 -124t92.5 -97t118 -63.5t131.5 -22.5q68 0 132.5 22.5t117.5 63.5t92 97.5t56 123.5h-795zM434 1030q0 -53 38 -91t91 -38t90 38t37 91 q0 51 -37 89t-90 38t-91 -38t-38 -89zM946 1030q0 -53 38 -91t91 -38t90 38t37 91q0 51 -37 89t-90 38t-91 -38t-38 -89z" />
<glyph unicode="u" d="M0 819q0 168 64.5 317.5t176 261t260 176t318.5 64.5q168 0 317.5 -64.5t261 -176t176 -261t64.5 -317.5q0 -170 -64.5 -318.5t-176 -260t-261 -176t-317.5 -64.5q-170 0 -318.5 64.5t-260 176t-176 260t-64.5 318.5zM102 819q0 -147 56.5 -278t154 -228.5t228.5 -154 t278 -56.5q150 0 280 57.5t227 156t153.5 228.5t56.5 275q0 147 -57.5 277.5t-154.5 227.5t-227 154.5t-278 57.5q-145 0 -275 -56.5t-228.5 -153.5t-156 -227t-57.5 -280zM410 973q0 61 44 106t105 47l-131 134l72 71l217 -217l-39 -39q39 -45 39 -102q0 -63 -45 -108.5 t-109 -45.5q-63 0 -108 45.5t-45 108.5zM717 410q0 43 29.5 72.5t72.5 29.5t73 -29.5t30 -72.5t-30 -73t-73 -30t-72.5 30t-29.5 73zM922 973q0 63 45 108t108 45t108.5 -45t45.5 -108t-45 -108.5t-109 -45.5q-63 0 -108 45.5t-45 108.5zM922 1229v102h307v-102h-307z" />
<glyph unicode="v" horiz-adv-x="1763" d="M0 815q0 119 34 229.5t95 207t148.5 174t193.5 128.5l-63 64l217 217l71 -72l-194 -194q150 61 313 61q156 0 285 -51l-182 184l71 72l217 -217l-59 -57q111 -49 200 -127t151.5 -176.5t97 -211t34.5 -231.5q0 -166 -64.5 -314.5t-175 -260t-259 -176t-316.5 -64.5 t-316.5 64.5t-259 175t-175 259t-64.5 316.5zM102 815q0 -147 56.5 -276t154 -226.5t226.5 -154t276 -56.5t277.5 56.5t227.5 154t153.5 227.5t56.5 275t-57.5 275.5t-154.5 227.5t-227 154.5t-276 57.5q-145 0 -275 -56.5t-227.5 -153.5t-154 -227.5t-56.5 -277.5zM305 969 q0 53 20.5 99t55.5 81t81 54.5t99 19.5q51 0 97.5 -20.5t81 -55.5t55 -81t20.5 -97q0 53 20.5 99t55.5 81t81 54.5t99 19.5q51 0 97 -20.5t81 -55.5t55.5 -81t20.5 -97q0 -53 -19.5 -99.5t-54 -81t-81 -55t-99.5 -20.5t-100 19.5t-82 54t-54.5 81.5t-19.5 101 q0 -53 -19.5 -99.5t-54 -81t-81 -55t-99.5 -20.5t-100 19.5t-82 54t-54.5 82t-19.5 100.5zM434 969q0 -53 37 -90t90 -37q51 0 89 36.5t38 90.5q0 51 -38 89t-89 38q-53 0 -90 -38t-37 -89zM713 510q0 41 30.5 71.5t71.5 30.5q43 0 73 -30.5t30 -71.5q0 -43 -30 -72.5 t-73 -29.5q-41 0 -71.5 29.5t-30.5 72.5zM942 969q0 -53 38 -90t91 -37q51 0 89 36.5t38 90.5q0 51 -38 89t-89 38q-53 0 -91 -38t-38 -89z" />
<glyph unicode="w" horiz-adv-x="1763" d="M0 815q0 119 34 229.5t95 207t148.5 174t193.5 128.5l-63 64l217 217l71 -72l-194 -194q150 61 313 61q156 0 285 -51l-182 184l71 72l217 -217l-59 -57q111 -49 200 -127t151.5 -176.5t97 -211t34.5 -231.5q0 -166 -64.5 -314.5t-175 -260t-259 -176t-316.5 -64.5 t-316.5 64.5t-259 175t-175 259t-64.5 316.5zM102 815q0 -147 56.5 -276t154 -226.5t226.5 -154t276 -56.5q195 0 361 99l-31 -2q-111 0 -227 116h2q-29 -4 -55.5 -7t-49.5 -3q-104 0 -197.5 41t-162 109.5t-109.5 162t-41 197.5h103q0 -84 31.5 -158.5t87 -130t130 -87 t158.5 -31.5q82 0 157 32.5t130 88t88 129t33 157.5h102q0 -145 -74 -264q70 -94 70 -193q0 -29 -6 -53q215 211 215 510q0 145 -57.5 275.5t-154.5 227.5t-227 154.5t-276 57.5q-145 0 -275 -56.5t-227.5 -153.5t-154 -227.5t-56.5 -277.5zM305 1026q0 53 20.5 99t55.5 81 t81 54.5t99 19.5q51 0 97.5 -20.5t81 -55.5t55 -81t20.5 -97q0 53 20.5 99t55.5 81t81 54.5t99 19.5q51 0 97 -20.5t81 -55.5t55.5 -81t20.5 -97q0 -53 -19.5 -99t-54 -81t-81 -55.5t-99.5 -20.5t-100 19.5t-82 54.5t-54.5 82t-19.5 100q0 -53 -19.5 -99t-54 -81t-81 -55.5 t-99.5 -20.5t-100 19.5t-82 54.5t-54.5 82t-19.5 100zM434 1026q0 -53 37 -91t90 -38q51 0 89 38t38 91q0 51 -38 89t-89 38q-53 0 -90 -38t-37 -89zM942 1026q0 -53 38 -91t91 -38q51 0 89 38t38 91q0 51 -38 89t-89 38q-53 0 -91 -38t-38 -89zM1030 354q78 -53 135 -53 q55 0 56 55q0 45 -37 107q-62 -68 -154 -109z" />
<glyph unicode="x" horiz-adv-x="1787" d="M0 819q0 352 258 596q-258 88 -258 223q0 68 69.5 124.5t185.5 97.5t263.5 63.5t300.5 22.5q154 0 301.5 -22.5t263 -63.5t185 -97.5t69.5 -124.5q0 -133 -256 -223q256 -244 256 -596q0 -168 -64.5 -316.5t-175 -260t-260 -177t-319.5 -65.5t-318.5 64.5t-260 176 t-176 260t-64.5 318.5zM102 819q0 -147 56.5 -278t154 -228.5t228.5 -154t278 -56.5q150 0 280 57.5t227 156t153.5 228.5t56.5 275q0 166 -70.5 313.5t-199.5 247.5q-207 -49 -447 -49q-242 0 -444 49q-129 -100 -201 -247.5t-72 -313.5zM102 1638q0 -94 240 -151 q219 152 477 151q264 0 477 -151q240 57 240 151q0 45 -60.5 82t-159.5 64.5t-229.5 43t-267.5 15.5t-266 -15.5t-229.5 -43t-161 -64.5t-60.5 -82zM307 819h103q0 -84 32.5 -158.5t88 -130t130 -88t158.5 -32.5t159 32.5t130 88t88 130t33 158.5h102q0 -104 -41 -197.5 t-110.5 -163t-162.5 -110.5t-198 -41q-106 0 -199.5 40t-163 109.5t-109.5 163t-40 199.5zM410 973q0 63 45 108t108 45t108.5 -45t45.5 -108t-45 -108.5t-109 -45.5q-63 0 -108 45.5t-45 108.5zM492 1456q78 -10 158.5 -16t168.5 -6t170 6t160 16q-158 80 -330 80 q-173 0 -327 -80zM922 973q0 63 45 108t108 45t108.5 -45t45.5 -108t-45 -108.5t-109 -45.5q-63 0 -108 45.5t-45 108.5z" />
<glyph unicode="y" horiz-adv-x="1775" d="M0 815q0 309 205 539v481l336 -252q141 47 274 47q125 0 260 -41l369 246l-27 -469q213 -238 213 -551q0 -166 -64.5 -314.5t-175 -260t-259 -176t-316.5 -64.5t-316.5 64.5t-259 175t-175 259t-64.5 316.5zM102 815q0 -147 56.5 -276t154 -226.5t226.5 -154t276 -56.5 t277.5 56.5t227.5 154t153.5 227.5t56.5 275t-57.5 275.5t-154.5 227.5t-227 154.5t-276 57.5q-145 0 -275 -56.5t-227.5 -153.5t-154 -227.5t-56.5 -277.5zM305 815h103q0 -84 31.5 -158.5t87 -130t130 -87t158.5 -31.5q82 0 157 32.5t130 88t88 129t33 157.5h102 q0 -104 -41 -197.5t-109.5 -162t-161.5 -109.5t-198 -41q-104 0 -197.5 41t-162 109.5t-109.5 162t-41 197.5zM408 969q0 61 44 106t105 45l-131 133l72 72l215 -215l-39 -39q39 -45 39 -102q0 -63 -45 -108.5t-107 -45.5q-63 0 -108 45.5t-45 108.5zM918 969q0 63 47 110 l-29 31l215 215l72 -72l-133 -133q57 -8 95 -51t38 -100q0 -63 -45 -108.5t-107 -45.5q-63 0 -108 45.5t-45 108.5z" />
<glyph unicode="z" d="M0 819q0 168 64.5 317.5t176 261t260 176t318.5 64.5q168 0 317.5 -64.5t261 -176t176 -261t64.5 -317.5q0 -170 -64.5 -318.5t-176 -260t-261 -176t-317.5 -64.5q-170 0 -318.5 64.5t-260 176t-176 260t-64.5 318.5zM102 819q0 -147 56.5 -278t154 -228.5t228.5 -154 t278 -56.5q150 0 280 57.5t227 156t153.5 228.5t56.5 275q0 147 -57.5 277.5t-154.5 227.5t-227 154.5t-278 57.5q-145 0 -275 -56.5t-228.5 -153.5t-156 -227t-57.5 -280zM307 717h1024q0 -104 -41 -197.5t-110.5 -163t-162.5 -110.5t-198 -41q-106 0 -199.5 40t-163 109.5 t-109.5 163t-40 199.5zM410 1008q0 53 33.5 95t84.5 54l-100 103l72 71l217 -217l-25 -24q25 -37 25 -82q0 -63 -45 -108.5t-109 -45.5q-63 0 -108 45.5t-45 108.5zM422 614q16 -68 55 -124t92.5 -97t118 -63.5t131.5 -22.5q68 0 132.5 22.5t117.5 63.5t92 97.5t56 123.5 h-91l-102 -204l-102 204h-205l-103 -204l-102 204h-90zM922 1008q0 57 39 102l-21 20l217 218l72 -72l-119 -119q51 -12 85 -54t34 -95q0 -63 -45 -108.5t-109 -45.5q-63 0 -108 45.5t-45 108.5z" />
<glyph unicode="{" d="M0 819q0 168 64.5 317.5t176 261t260 176t318.5 64.5q168 0 317.5 -64.5t261 -176t176 -261t64.5 -317.5q0 -170 -64.5 -318.5t-176 -260t-261 -176t-317.5 -64.5q-170 0 -318.5 64.5t-260 176t-176 260t-64.5 318.5zM102 819q0 -147 56.5 -278t154 -228.5t228.5 -154 t278 -56.5q150 0 280 57.5t227 156t153.5 228.5t56.5 275q0 147 -57.5 277.5t-154.5 227.5t-227 154.5t-278 57.5q-145 0 -275 -56.5t-228.5 -153.5t-156 -227t-57.5 -280zM307 614v103h1024v-103h-102l-103 -204l-102 204h-410l-102 -204l-102 204h-103zM410 973 q0 61 44 106t105 47l-131 134l72 71l217 -217l-39 -39q39 -45 39 -102q0 -63 -45 -108.5t-109 -45.5q-63 0 -108 45.5t-45 108.5zM922 973q0 63 47 110l-29 31l217 217l72 -71l-133 -136q55 -6 94 -50t39 -101q0 -63 -45 -108.5t-109 -45.5q-63 0 -108 45.5t-45 108.5z" />
<glyph unicode="|" horiz-adv-x="1779" d="M0 819q0 168 64.5 317.5t176 261t260 176t318.5 64.5q168 0 317.5 -64.5t261 -176t176 -261t64.5 -317.5q0 -170 -64.5 -318.5t-176 -260t-261 -176t-317.5 -64.5q-170 0 -318.5 64.5t-260 176t-176 260t-64.5 318.5zM102 819q0 -147 56.5 -278t154 -228.5t228.5 -154 t278 -56.5q150 0 280 57.5t227 156t153.5 228.5t56.5 275q0 147 -57.5 277.5t-154.5 227.5t-227 154.5t-278 57.5q-145 0 -275 -56.5t-228.5 -153.5t-156 -227t-57.5 -280zM410 512v102h819v-102h-819zM410 973q0 63 45 108t108 45t108.5 -45t45.5 -108t-45 -108.5 t-109 -45.5q-63 0 -108 45.5t-45 108.5zM922 973q0 63 45 108t108 45t108.5 -45t45.5 -108t-45 -108.5t-109 -45.5q-63 0 -108 45.5t-45 108.5z" />
<glyph unicode="}" horiz-adv-x="1775" d="M0 815q0 309 205 539v481l336 -252q141 47 274 47q125 0 260 -41l369 246l-27 -469q213 -238 213 -551q0 -166 -64.5 -314.5t-175 -260t-259 -176t-316.5 -64.5t-316.5 64.5t-259 175t-175 259t-64.5 316.5zM102 815q0 -147 56.5 -276t154 -226.5t226.5 -154t276 -56.5 t277.5 56.5t227.5 154t153.5 227.5t56.5 275t-57.5 275.5t-154.5 227.5t-227 154.5t-276 57.5q-145 0 -275 -56.5t-227.5 -153.5t-154 -227.5t-56.5 -277.5zM305 696h1020q0 -104 -41 -196t-109.5 -161t-161.5 -110t-198 -41q-104 0 -197.5 41t-162 110t-109.5 161t-41 196z M408 985q0 53 33.5 95t84.5 55l-100 102l72 72l215 -217l-23 -23q23 -41 23 -84q0 -61 -45 -106t-107 -45q-63 0 -108 45t-45 106zM420 596q16 -68 54 -124t90 -97t116.5 -63.5t134.5 -22.5q68 0 132.5 22.5t117.5 63.5t91 97t54 124h-88l-102 -205l-102 205h-205l-101 -205 l-102 205h-90zM918 985q0 63 38 102l-20 23l215 215l72 -72l-117 -118q51 -12 84 -54.5t33 -95.5q0 -61 -45 -106t-107 -45q-63 0 -108 45t-45 106z" />
<glyph unicode="~" horiz-adv-x="888" />
<glyph unicode="&#xaa;" d="M0 819q0 168 64.5 317.5t176 261t260 176t318.5 64.5q168 0 317.5 -64.5t261 -176t176 -261t64.5 -317.5q0 -170 -64.5 -318.5t-176 -260t-261 -176t-317.5 -64.5q-170 0 -318.5 64.5t-260 176t-176 260t-64.5 318.5zM102 819q0 -147 56.5 -278t154 -228.5t228.5 -154 t278 -56.5q150 0 280 57.5t227 156t153.5 228.5t56.5 275q0 147 -57.5 277.5t-154.5 227.5t-227 154.5t-278 57.5q-145 0 -275 -56.5t-228.5 -153.5t-156 -227t-57.5 -280zM410 922v102h307v-102h-307zM512 512v102h614v-102h-102q0 -57 -15.5 -112.5t-42 -98.5t-64.5 -69.5 t-83 -26.5t-83 26.5t-64.5 69.5t-42 98.5t-15.5 112.5h-102zM717 512q0 -35 8 -72t22.5 -66.5t33 -48t38.5 -18.5q18 0 36.5 18.5t33 48t24 66.5t9.5 72h-205zM922 922v102h307v-102h-307z" />
<glyph unicode="&#xb2;" horiz-adv-x="1761" d="M0 815q0 119 34 229.5t95 207t148.5 173t193.5 127.5l-47 47l217 216l72 -72l-156 -156q135 41 258 41q156 0 285 -51l-166 166l72 72l217 -216l-54 -51q104 -49 189.5 -127t145 -175t92 -207.5t32.5 -223.5q0 -166 -64.5 -314.5t-175 -260t-258 -176t-315.5 -64.5 q-207 0 -395 102h-12v7q-94 55 -170 130.5t-128.5 166t-81 194.5t-28.5 215zM102 815q0 -174 81 -329.5t225 -256.5v322q-203 168 -205 416h123q0 -96 41 -177t108.5 -141.5t155.5 -94.5t184 -34t184 35t156 94.5t108 141t40 176.5h122q0 -250 -202 -416v-322 q141 100 223 256t82 330q0 145 -56.5 275.5t-153.5 227.5t-227 153.5t-276 56.5q-147 0 -276 -56.5t-226.5 -153.5t-154 -227.5t-56.5 -275.5zM510 203h215v211q-59 8 -112.5 25.5t-102.5 43.5v-280zM510 1069q0 63 45 108.5t107 45.5q63 0 108 -45t45 -109 q0 -63 -45 -108.5t-108 -45.5q-61 0 -106.5 45.5t-45.5 108.5zM815 967q0 63 45 108t107 45q63 0 108 -45t45 -108q0 -61 -45 -106.5t-108 -45.5q-61 0 -106.5 45.5t-45.5 106.5zM838 102q188 6 344 101h-344v-101zM926 305h194v178q-47 -27 -95 -42t-99 -23v-113z" />
<glyph unicode="&#xb3;" d="M0 819q0 168 64.5 317.5t176 261t260 176t318.5 64.5q168 0 317.5 -64.5t261 -176t176 -261t64.5 -317.5q0 -170 -64.5 -318.5t-176 -260t-261 -176t-317.5 -64.5q-170 0 -318.5 64.5t-260 176t-176 260t-64.5 318.5zM102 819q0 -297 205 -502q2 104 44 195.5t111.5 159 t162 107.5t194.5 40t194.5 -40t162 -107.5t111.5 -158.5t44 -196q205 205 205 502q0 147 -57.5 277.5t-154.5 227.5t-227 154.5t-278 57.5q-145 0 -275 -56.5t-228.5 -153.5t-156 -227t-57.5 -280zM410 307h819q0 61 -23 135h-774q-22 -74 -22 -135zM410 973q0 61 44 106 t105 47l-131 134l72 71l217 -217l-39 -39q39 -45 39 -102q0 -63 -45 -108.5t-109 -45.5q-63 0 -108 45.5t-45 108.5zM451 205q170 -102 368 -103q199 0 369 103h-737zM516 582h606q-121 135 -303 135q-184 0 -303 -135zM922 973q0 63 47 110l-29 31l217 217l72 -71 l-133 -136q55 -6 94 -50t39 -101q0 -63 -45 -108.5t-109 -45.5q-63 0 -108 45.5t-45 108.5z" />
<glyph unicode="&#xb7;" d="M0 819q0 168 64.5 317.5t176 261t260 176t318.5 64.5q168 0 317.5 -64.5t261 -176t176 -261t64.5 -317.5q0 -170 -64.5 -318.5t-176 -260t-261 -176t-317.5 -64.5q-170 0 -318.5 64.5t-260 176t-176 260t-64.5 318.5zM307 819q0 -106 40 -199.5t109.5 -163t163 -109.5 t199.5 -40q104 0 197.5 41t163 110.5t110.5 163t41 197.5t-41 196.5t-111.5 163t-162.5 111.5t-197 41q-104 0 -197.5 -41t-163 -110.5t-110.5 -163t-41 -197.5zM614 819q0 43 15.5 80t43 64.5t65.5 44t81 16.5q86 0 145.5 -59.5t59.5 -145.5q0 -43 -16.5 -81t-44 -65.5 t-64.5 -43t-80 -15.5q-88 0 -146.5 58.5t-58.5 146.5z" />
<glyph unicode="&#x2219;" d="M0 819q0 168 64.5 317.5t176 261t260 176t318.5 64.5q168 0 317.5 -64.5t261 -176t176 -261t64.5 -317.5q0 -170 -64.5 -318.5t-176 -260t-261 -176t-317.5 -64.5q-170 0 -318.5 64.5t-260 176t-176 260t-64.5 318.5zM307 819q0 -106 40 -199.5t109.5 -163t163 -109.5 t199.5 -40q104 0 197.5 41t163 110.5t110.5 163t41 197.5t-41 196.5t-111.5 163t-162.5 111.5t-197 41q-104 0 -197.5 -41t-163 -110.5t-110.5 -163t-41 -197.5zM614 819q0 43 15.5 80t43 64.5t65.5 44t81 16.5q86 0 145.5 -59.5t59.5 -145.5q0 -43 -16.5 -81t-44 -65.5 t-64.5 -43t-80 -15.5q-88 0 -146.5 58.5t-58.5 146.5z" />
<glyph unicode="&#xb8;" d="M0 819q0 168 64.5 317.5t176 261t260 176t318.5 64.5q168 0 317.5 -64.5t261 -176t176 -261t64.5 -317.5q0 -170 -64.5 -318.5t-176 -260t-261 -176t-317.5 -64.5q-170 0 -318.5 64.5t-260 176t-176 260t-64.5 318.5zM307 819q0 -106 40 -199.5t109.5 -163t163 -109.5 t199.5 -40q88 0 187 35l-664 664q-35 -99 -35 -187zM633 1296l663 -663q35 98 35 186q0 104 -41 196.5t-111.5 163t-162.5 111.5t-197 41q-88 0 -186 -35z" />
<glyph unicode="&#xb9;" d="M0 819q0 168 64.5 317.5t176 261t260 176t318.5 64.5q168 0 317.5 -64.5t261 -176t176 -261t64.5 -317.5q0 -170 -64.5 -318.5t-176 -260t-261 -176t-317.5 -64.5q-170 0 -318.5 64.5t-260 176t-176 260t-64.5 318.5zM102 819q0 -147 56.5 -278t154 -228.5t228.5 -154 t278 -56.5q150 0 280 57.5t227 156t153.5 228.5t56.5 275q0 147 -57.5 277.5t-154.5 227.5t-227 154.5t-278 57.5q-145 0 -275 -56.5t-228.5 -153.5t-156 -227t-57.5 -280zM307 717h1024q0 -104 -41 -197.5t-110.5 -163t-162.5 -110.5t-198 -41q-106 0 -199.5 40t-163 109.5 t-109.5 163t-40 199.5zM410 1008q0 53 33.5 95t84.5 54l-100 103l72 71l217 -217l-25 -24q25 -37 25 -82q0 -63 -45 -108.5t-109 -45.5q-63 0 -108 45.5t-45 108.5zM422 614q16 -68 55 -124t92.5 -97t118 -63.5t131.5 -22.5q68 0 132.5 22.5t117.5 63.5t92 97.5t56 123.5 h-91l-102 -204l-102 204h-205l-103 -204l-102 204h-90zM922 1008q0 57 39 102l-21 20l217 218l72 -72l-119 -119q51 -12 85 -54t34 -95q0 -63 -45 -108.5t-109 -45.5q-63 0 -108 45.5t-45 108.5z" />
<glyph unicode="&#xba;" d="M0 819q0 168 64.5 317.5t176 261t260 176t318.5 64.5q168 0 317.5 -64.5t261 -176t176 -261t64.5 -317.5q0 -170 -64.5 -318.5t-176 -260t-261 -176t-317.5 -64.5q-170 0 -318.5 64.5t-260 176t-176 260t-64.5 318.5zM102 819q0 -147 56.5 -278t154 -228.5t228.5 -154 t278 -56.5q150 0 280 57.5t227 156t153.5 228.5t56.5 275q0 147 -57.5 277.5t-154.5 227.5t-227 154.5t-278 57.5q-145 0 -275 -56.5t-228.5 -153.5t-156 -227t-57.5 -280zM410 973q0 63 45 108t108 45t108.5 -45t45.5 -108t-45 -108.5t-109 -45.5q-63 0 -108 45.5 t-45 108.5zM428 1198l217 217l72 -72l-217 -217zM614 512q0 43 15.5 80t43 64.5t65.5 44t81 16.5q86 0 145.5 -59.5t59.5 -145.5q0 -43 -16.5 -81t-44 -65.5t-64.5 -43t-80 -15.5q-88 0 -146.5 58.5t-58.5 146.5zM922 973q0 63 45 108t108 45t108.5 -45t45.5 -108 t-45 -108.5t-109 -45.5q-63 0 -108 45.5t-45 108.5zM940 1343l72 72l217 -217l-72 -72z" />
<glyph unicode="&#xc2;" horiz-adv-x="1779" d="M0 2580q0 168 64.5 317.5t176 261t260 176t318.5 64.5q168 0 317.5 -64.5t261 -176t176 -261t64.5 -317.5q0 -170 -64.5 -318.5t-176 -260t-261 -176t-317.5 -64.5q-170 0 -318.5 64.5t-260 176t-176 260t-64.5 318.5zM102 2580q0 -147 56.5 -278t154 -228.5t228.5 -154 t278 -56.5q150 0 280 57.5t227 156t153.5 228.5t56.5 275q0 147 -57.5 277.5t-154.5 227.5t-227 154.5t-278 57.5q-145 0 -275 -56.5t-228.5 -153.5t-156 -227t-57.5 -280zM307 2683q0 57 15.5 112.5t42 98.5t64.5 69.5t83 26.5t83 -26.5t64.5 -69.5t42 -98.5t15.5 -112.5 h-103q0 33 -8 69.5t-22.5 66t-33 49t-38.5 19.5t-38.5 -19.5t-33 -49t-22.5 -66.5t-8 -69h-103zM512 2273v102h614v-102h-614zM922 2683q0 57 15 112.5t42 98.5t64.5 69.5t82.5 26.5t83 -26.5t64.5 -69.5t42 -98.5t15.5 -112.5h-102q0 33 -8.5 69.5t-22.5 66t-32.5 49 t-39.5 19.5q-20 0 -38.5 -19.5t-33 -49t-22.5 -66.5t-8 -69h-102zM0 819q0 168 64.5 317.5t176 261t260 176t318.5 64.5q168 0 317.5 -64.5t261 -176t176 -261t64.5 -317.5q0 -170 -64.5 -318.5t-176 -260t-261 -176t-317.5 -64.5q-170 0 -318.5 64.5t-260 176t-176 260 t-64.5 318.5zM102 819q0 -147 56.5 -278t154 -228.5t228.5 -154t278 -56.5q150 0 280 57.5t227 156t153.5 228.5t56.5 275q0 147 -57.5 277.5t-154.5 227.5t-227 154.5t-278 57.5q-145 0 -275 -56.5t-228.5 -153.5t-156 -227t-57.5 -280zM307 819h103q0 -86 31.5 -160.5 t87 -130t130 -87t160.5 -31.5q84 0 159 32.5t130 88t88 130t33 158.5h102q0 -104 -41 -197.5t-110.5 -163t-162.5 -110.5t-198 -41q-106 0 -199.5 40t-163 109.5t-109.5 163t-40 199.5zM410 973q0 63 45 108t108 45t108.5 -45t45.5 -108t-45 -108.5t-109 -45.5 q-63 0 -108 45.5t-45 108.5zM922 973q0 63 45 108t108 45t108.5 -45t45.5 -108t-45 -108.5t-109 -45.5q-63 0 -108 45.5t-45 108.5z" />
<glyph unicode="&#xc3;" horiz-adv-x="1779" d="M0 819q0 168 64.5 317.5t176 261t260 176t318.5 64.5q168 0 317.5 -64.5t261 -176t176 -261t64.5 -317.5q0 -170 -64.5 -318.5t-176 -260t-261 -176t-317.5 -64.5q-170 0 -318.5 64.5t-260 176t-176 260t-64.5 318.5zM102 819q0 -147 56.5 -278t154 -228.5t228.5 -154 t278 -56.5q150 0 280 57.5t227 156t153.5 228.5t56.5 275q0 147 -57.5 277.5t-154.5 227.5t-227 154.5t-278 57.5q-145 0 -275 -56.5t-228.5 -153.5t-156 -227t-57.5 -280zM307 819h103q0 -86 31.5 -160.5t87 -130t130 -87t160.5 -31.5q84 0 159 32.5t130 88t88 130 t33 158.5h102q0 -104 -41 -197.5t-110.5 -163t-162.5 -110.5t-198 -41q-106 0 -199.5 40t-163 109.5t-109.5 163t-40 199.5zM410 973q0 63 45 108t108 45t108.5 -45t45.5 -108t-45 -108.5t-109 -45.5q-63 0 -108 45.5t-45 108.5zM922 973q0 63 45 108t108 45t108.5 -45 t45.5 -108t-45 -108.5t-109 -45.5q-63 0 -108 45.5t-45 108.5z" />
<glyph unicode="&#xc7;" horiz-adv-x="1779" d="M0 -764q0 168 64.5 317.5t176 261t260 176t318.5 64.5q168 0 317.5 -64.5t261 -176t176 -261t64.5 -317.5q0 -170 -64.5 -318.5t-176 -260t-261 -176t-317.5 -64.5q-170 0 -318.5 64.5t-260 176t-176 260t-64.5 318.5zM307 -764q0 -106 40 -199.5t109.5 -163t163 -109.5 t199.5 -40q88 0 187 35l-664 664q-35 -99 -35 -187zM633 -287l663 -663q35 98 35 186q0 104 -41 196.5t-111.5 163t-162.5 111.5t-197 41q-88 0 -186 -35zM0 819q0 168 64.5 317.5t176 261t260 176t318.5 64.5q168 0 317.5 -64.5t261 -176t176 -261t64.5 -317.5 q0 -170 -64.5 -318.5t-176 -260t-261 -176t-317.5 -64.5q-170 0 -318.5 64.5t-260 176t-176 260t-64.5 318.5zM102 819q0 -147 56.5 -278t154 -228.5t228.5 -154t278 -56.5q150 0 280 57.5t227 156t153.5 228.5t56.5 275q0 147 -57.5 277.5t-154.5 227.5t-227 154.5 t-278 57.5q-145 0 -275 -56.5t-228.5 -153.5t-156 -227t-57.5 -280zM410 512v102h819v-102h-819zM410 973q0 63 45 108t108 45t108.5 -45t45.5 -108t-45 -108.5t-109 -45.5q-63 0 -108 45.5t-45 108.5zM922 973q0 63 45 108t108 45t108.5 -45t45.5 -108t-45 -108.5 t-109 -45.5q-63 0 -108 45.5t-45 108.5z" />
<glyph unicode="&#xca;" horiz-adv-x="1779" d="M0 2580q0 168 64.5 317.5t176 261t260 176t318.5 64.5q168 0 317.5 -64.5t261 -176t176 -261t64.5 -317.5q0 -170 -64.5 -318.5t-176 -260t-261 -176t-317.5 -64.5q-170 0 -318.5 64.5t-260 176t-176 260t-64.5 318.5zM102 2580q0 -147 56.5 -278t154 -228.5t228.5 -154 t278 -56.5q150 0 280 57.5t227 156t153.5 228.5t56.5 275q0 147 -57.5 277.5t-154.5 227.5t-227 154.5t-278 57.5q-145 0 -275 -56.5t-228.5 -153.5t-156 -227t-57.5 -280zM307 2683q0 57 15.5 112.5t42 98.5t64.5 69.5t83 26.5t83 -26.5t64.5 -69.5t42 -98.5t15.5 -112.5 h-103q0 33 -8 69.5t-22.5 66t-33 49t-38.5 19.5t-38.5 -19.5t-33 -49t-22.5 -66.5t-8 -69h-103zM512 2273v102h614v-102h-614zM922 2683q0 57 15 112.5t42 98.5t64.5 69.5t82.5 26.5t83 -26.5t64.5 -69.5t42 -98.5t15.5 -112.5h-102q0 33 -8.5 69.5t-22.5 66t-32.5 49 t-39.5 19.5q-20 0 -38.5 -19.5t-33 -49t-22.5 -66.5t-8 -69h-102zM0 819q0 168 64.5 317.5t176 261t260 176t318.5 64.5q168 0 317.5 -64.5t261 -176t176 -261t64.5 -317.5q0 -170 -64.5 -318.5t-176 -260t-261 -176t-317.5 -64.5q-170 0 -318.5 64.5t-260 176t-176 260 t-64.5 318.5zM102 819q0 -147 56.5 -278t154 -228.5t228.5 -154t278 -56.5q150 0 280 57.5t227 156t153.5 228.5t56.5 275q0 147 -57.5 277.5t-154.5 227.5t-227 154.5t-278 57.5q-145 0 -275 -56.5t-228.5 -153.5t-156 -227t-57.5 -280zM410 512v102h819v-102 q0 -57 -15.5 -112.5t-42 -98.5t-64.5 -69.5t-83 -26.5t-83 26.5t-64.5 69.5t-42 98.5t-15.5 112.5h-409zM410 973q0 63 45 108t108 45t108.5 -45t45.5 -108t-45 -108.5t-109 -45.5q-63 0 -108 45.5t-45 108.5zM922 512q0 -35 8 -72t22.5 -66.5t33 -48t38.5 -18.5 q18 0 36.5 18.5t33 48t23.5 66.5t9 72h-204zM922 973q0 63 45 108t108 45t108.5 -45t45.5 -108t-45 -108.5t-109 -45.5q-63 0 -108 45.5t-45 108.5z" />
<glyph unicode="&#xce;" horiz-adv-x="1779" d="M0 2580q0 168 64.5 317.5t176 261t260 176t318.5 64.5q168 0 317.5 -64.5t261 -176t176 -261t64.5 -317.5q0 -170 -64.5 -318.5t-176 -260t-261 -176t-317.5 -64.5q-170 0 -318.5 64.5t-260 176t-176 260t-64.5 318.5zM102 2580q0 -147 56.5 -278t154 -228.5t228.5 -154 t278 -56.5q150 0 280 57.5t227 156t153.5 228.5t56.5 275q0 147 -57.5 277.5t-154.5 227.5t-227 154.5t-278 57.5q-145 0 -275 -56.5t-228.5 -153.5t-156 -227t-57.5 -280zM307 2683q0 57 15.5 112.5t42 98.5t64.5 69.5t83 26.5t83 -26.5t64.5 -69.5t42 -98.5t15.5 -112.5 h-103q0 33 -8 69.5t-22.5 66t-33 49t-38.5 19.5t-38.5 -19.5t-33 -49t-22.5 -66.5t-8 -69h-103zM512 2273v102h614v-102h-614zM922 2683q0 57 15 112.5t42 98.5t64.5 69.5t82.5 26.5t83 -26.5t64.5 -69.5t42 -98.5t15.5 -112.5h-102q0 33 -8.5 69.5t-22.5 66t-32.5 49 t-39.5 19.5q-20 0 -38.5 -19.5t-33 -49t-22.5 -66.5t-8 -69h-102zM0 819q0 168 64.5 317.5t176 261t260 176t318.5 64.5q168 0 317.5 -64.5t261 -176t176 -261t64.5 -317.5q0 -170 -64.5 -318.5t-176 -260t-261 -176t-317.5 -64.5q-170 0 -318.5 64.5t-260 176t-176 260 t-64.5 318.5zM102 819q0 -297 205 -502q2 104 44 195.5t111.5 159t162 107.5t194.5 40t194.5 -40t162 -107.5t111.5 -158.5t44 -196q205 205 205 502q0 147 -57.5 277.5t-154.5 227.5t-227 154.5t-278 57.5q-145 0 -275 -56.5t-228.5 -153.5t-156 -227t-57.5 -280zM317 307 q205 -205 502 -205t502 205h-92q0 84 -33 159t-88 130t-130 88t-159 33t-158.5 -33t-130 -88t-88 -130t-32.5 -159h-93zM410 922v102h307v-102h-307zM922 973q0 63 45 108t108 45t108.5 -45t45.5 -108t-45 -108.5t-109 -45.5q-63 0 -108 45.5t-45 108.5z" />
<glyph unicode="&#xd1;" horiz-adv-x="1779" d="M0 819q0 168 64.5 317.5t176 261t260 176t318.5 64.5q168 0 317.5 -64.5t261 -176t176 -261t64.5 -317.5q0 -170 -64.5 -318.5t-176 -260t-261 -176t-317.5 -64.5q-170 0 -318.5 64.5t-260 176t-176 260t-64.5 318.5zM102 819q0 -147 56.5 -278t154 -228.5t228.5 -154 t278 -56.5q150 0 280 57.5t227 156t153.5 228.5t56.5 275q0 147 -57.5 277.5t-154.5 227.5t-227 154.5t-278 57.5q-145 0 -275 -56.5t-228.5 -153.5t-156 -227t-57.5 -280zM410 629l51 88l708 -410l-51 -88zM410 973q0 63 45 108t108 45t108.5 -45t45.5 -108t-45 -108.5 t-109 -45.5q-63 0 -108 45.5t-45 108.5zM922 973q0 63 45 108t108 45t108.5 -45t45.5 -108t-45 -108.5t-109 -45.5q-63 0 -108 45.5t-45 108.5z" />
<glyph unicode="&#xd4;" horiz-adv-x="1779" d="M0 2580q0 168 64.5 317.5t176 261t260 176t318.5 64.5q168 0 317.5 -64.5t261 -176t176 -261t64.5 -317.5q0 -170 -64.5 -318.5t-176 -260t-261 -176t-317.5 -64.5q-170 0 -318.5 64.5t-260 176t-176 260t-64.5 318.5zM102 2580q0 -147 56.5 -278t154 -228.5t228.5 -154 t278 -56.5q150 0 280 57.5t227 156t153.5 228.5t56.5 275q0 147 -57.5 277.5t-154.5 227.5t-227 154.5t-278 57.5q-145 0 -275 -56.5t-228.5 -153.5t-156 -227t-57.5 -280zM307 2683q0 57 15.5 112.5t42 98.5t64.5 69.5t83 26.5t83 -26.5t64.5 -69.5t42 -98.5t15.5 -112.5 h-103q0 33 -8 69.5t-22.5 66t-33 49t-38.5 19.5t-38.5 -19.5t-33 -49t-22.5 -66.5t-8 -69h-103zM512 2273v102h614v-102h-614zM922 2683q0 57 15 112.5t42 98.5t64.5 69.5t82.5 26.5t83 -26.5t64.5 -69.5t42 -98.5t15.5 -112.5h-102q0 33 -8.5 69.5t-22.5 66t-32.5 49 t-39.5 19.5q-20 0 -38.5 -19.5t-33 -49t-22.5 -66.5t-8 -69h-102zM0 819q0 168 64.5 317.5t176 261t260 176t318.5 64.5q168 0 317.5 -64.5t261 -176t176 -261t64.5 -317.5q0 -170 -64.5 -318.5t-176 -260t-261 -176t-317.5 -64.5q-170 0 -318.5 64.5t-260 176t-176 260 t-64.5 318.5zM102 819q0 -147 56.5 -278t154 -228.5t228.5 -154t278 -56.5q150 0 280 57.5t227 156t153.5 228.5t56.5 275q0 147 -57.5 277.5t-154.5 227.5t-227 154.5t-278 57.5q-145 0 -275 -56.5t-228.5 -153.5t-156 -227t-57.5 -280zM307 819h103q0 -86 31.5 -160.5 t87 -130t130 -87t160.5 -31.5q84 0 159 32.5t130 88t88 130t33 158.5h102q0 -104 -41 -197.5t-110.5 -163t-162.5 -110.5t-198 -41q-106 0 -199.5 40t-163 109.5t-109.5 163t-40 199.5zM410 922v102h307v-102h-307zM410 1260l71 71l217 -217l-71 -72zM922 973q0 57 39 102 l-39 39l217 217l71 -71l-131 -134q61 -2 105.5 -47t44.5 -106q0 -63 -45 -108.5t-109 -45.5q-63 0 -108 45.5t-45 108.5z" />
<glyph unicode="&#xd5;" horiz-adv-x="1779" d="M0 819q0 168 64.5 317.5t176 261t260 176t318.5 64.5q168 0 317.5 -64.5t261 -176t176 -261t64.5 -317.5q0 -170 -64.5 -318.5t-176 -260t-261 -176t-317.5 -64.5q-170 0 -318.5 64.5t-260 176t-176 260t-64.5 318.5zM102 819q0 -147 56.5 -278t154 -228.5t228.5 -154 t278 -56.5q150 0 280 57.5t227 156t153.5 228.5t56.5 275q0 147 -57.5 277.5t-154.5 227.5t-227 154.5t-278 57.5q-145 0 -275 -56.5t-228.5 -153.5t-156 -227t-57.5 -280zM307 819h103q0 -86 31.5 -160.5t87 -130t130 -87t160.5 -31.5q84 0 159 32.5t130 88t88 130 t33 158.5h102q0 -104 -41 -197.5t-110.5 -163t-162.5 -110.5t-198 -41q-106 0 -199.5 40t-163 109.5t-109.5 163t-40 199.5zM410 922v102h307v-102h-307zM410 1260l71 71l217 -217l-71 -72zM922 973q0 57 39 102l-39 39l217 217l71 -71l-131 -134q61 -2 105.5 -47t44.5 -106 q0 -63 -45 -108.5t-109 -45.5q-63 0 -108 45.5t-45 108.5z" />
<glyph unicode="&#xdb;" horiz-adv-x="1779" d="M0 2580q0 168 64.5 317.5t176 261t260 176t318.5 64.5q168 0 317.5 -64.5t261 -176t176 -261t64.5 -317.5q0 -170 -64.5 -318.5t-176 -260t-261 -176t-317.5 -64.5q-170 0 -318.5 64.5t-260 176t-176 260t-64.5 318.5zM102 2580q0 -147 56.5 -278t154 -228.5t228.5 -154 t278 -56.5q150 0 280 57.5t227 156t153.5 228.5t56.5 275q0 147 -57.5 277.5t-154.5 227.5t-227 154.5t-278 57.5q-145 0 -275 -56.5t-228.5 -153.5t-156 -227t-57.5 -280zM307 2683q0 57 15.5 112.5t42 98.5t64.5 69.5t83 26.5t83 -26.5t64.5 -69.5t42 -98.5t15.5 -112.5 h-103q0 33 -8 69.5t-22.5 66t-33 49t-38.5 19.5t-38.5 -19.5t-33 -49t-22.5 -66.5t-8 -69h-103zM512 2273v102h614v-102h-614zM922 2683q0 57 15 112.5t42 98.5t64.5 69.5t82.5 26.5t83 -26.5t64.5 -69.5t42 -98.5t15.5 -112.5h-102q0 33 -8.5 69.5t-22.5 66t-32.5 49 t-39.5 19.5q-20 0 -38.5 -19.5t-33 -49t-22.5 -66.5t-8 -69h-102zM0 819q0 168 64.5 317.5t176 261t260 176t318.5 64.5q168 0 317.5 -64.5t261 -176t176 -261t64.5 -317.5q0 -170 -64.5 -318.5t-176 -260t-261 -176t-317.5 -64.5q-170 0 -318.5 64.5t-260 176t-176 260 t-64.5 318.5zM102 819q0 -147 56.5 -278t154 -228.5t228.5 -154t278 -56.5q150 0 280 57.5t227 156t153.5 228.5t56.5 275q0 147 -57.5 277.5t-154.5 227.5t-227 154.5t-278 57.5q-145 0 -275 -56.5t-228.5 -153.5t-156 -227t-57.5 -280zM307 870q0 63 45 108.5t109 45.5 q63 0 108 -45t45 -109q0 -63 -45 -108t-108 -45t-108.5 45t-45.5 108zM383 870q0 -31 23.5 -54t54.5 -23t53.5 23.5t22.5 53.5q0 31 -22.5 53.5t-53.5 22.5t-54.5 -22.5t-23.5 -53.5zM627 614v103h385v-103h-385zM922 967q0 51 20.5 97t56 80t81.5 53.5t98 19.5 q51 0 97 -19.5t81 -53.5t56.5 -80t21.5 -97q0 -53 -20.5 -98.5t-55.5 -79t-82 -53t-98 -19.5q-53 0 -99.5 19.5t-81 53t-55 79t-20.5 98.5zM1049 967q0 -51 38.5 -88t90.5 -37q51 0 89 36.5t38 88.5q0 53 -38 89t-89 36t-90 -36t-39 -89z" />
<glyph unicode="&#xe2;" d="M0 2580q0 168 64.5 317.5t176 261t260 176t318.5 64.5q168 0 317.5 -64.5t261 -176t176 -261t64.5 -317.5q0 -170 -64.5 -318.5t-176 -260t-261 -176t-317.5 -64.5q-170 0 -318.5 64.5t-260 176t-176 260t-64.5 318.5zM102 2580q0 -147 56.5 -278t154 -228.5t228.5 -154 t278 -56.5q150 0 280 57.5t227 156t153.5 228.5t56.5 275q0 147 -57.5 277.5t-154.5 227.5t-227 154.5t-278 57.5q-145 0 -275 -56.5t-228.5 -153.5t-156 -227t-57.5 -280zM307 2683q0 57 15.5 112.5t42 98.5t64.5 69.5t83 26.5t83 -26.5t64.5 -69.5t42 -98.5t15.5 -112.5 h-103q0 33 -8 69.5t-22.5 66t-33 49t-38.5 19.5t-38.5 -19.5t-33 -49t-22.5 -66.5t-8 -69h-103zM512 2273v102h614v-102h-614zM922 2683q0 57 15 112.5t42 98.5t64.5 69.5t82.5 26.5t83 -26.5t64.5 -69.5t42 -98.5t15.5 -112.5h-102q0 33 -8.5 69.5t-22.5 66t-32.5 49 t-39.5 19.5q-20 0 -38.5 -19.5t-33 -49t-22.5 -66.5t-8 -69h-102zM0 819q0 168 64.5 317.5t176 261t260 176t318.5 64.5q168 0 317.5 -64.5t261 -176t176 -261t64.5 -317.5q0 -170 -64.5 -318.5t-176 -260t-261 -176t-317.5 -64.5q-170 0 -318.5 64.5t-260 176t-176 260 t-64.5 318.5zM102 819q0 -147 56.5 -278t154 -228.5t228.5 -154t278 -56.5q150 0 280 57.5t227 156t153.5 228.5t56.5 275q0 147 -57.5 277.5t-154.5 227.5t-227 154.5t-278 57.5q-145 0 -275 -56.5t-228.5 -153.5t-156 -227t-57.5 -280zM410 922v102h307v-102h-307z M512 512v102h614v-102h-102q0 -57 -15.5 -112.5t-42 -98.5t-64.5 -69.5t-83 -26.5t-83 26.5t-64.5 69.5t-42 98.5t-15.5 112.5h-102zM717 512q0 -35 8 -72t22.5 -66.5t33 -48t38.5 -18.5q18 0 36.5 18.5t33 48t24 66.5t9.5 72h-205zM922 922v102h307v-102h-307z" />
<glyph unicode="&#xe3;" d="M0 819q0 168 64.5 317.5t176 261t260 176t318.5 64.5q168 0 317.5 -64.5t261 -176t176 -261t64.5 -317.5q0 -170 -64.5 -318.5t-176 -260t-261 -176t-317.5 -64.5q-170 0 -318.5 64.5t-260 176t-176 260t-64.5 318.5zM102 819q0 -147 56.5 -278t154 -228.5t228.5 -154 t278 -56.5q150 0 280 57.5t227 156t153.5 228.5t56.5 275q0 147 -57.5 277.5t-154.5 227.5t-227 154.5t-278 57.5q-145 0 -275 -56.5t-228.5 -153.5t-156 -227t-57.5 -280zM410 922v102h307v-102h-307zM512 512v102h614v-102h-102q0 -57 -15.5 -112.5t-42 -98.5t-64.5 -69.5 t-83 -26.5t-83 26.5t-64.5 69.5t-42 98.5t-15.5 112.5h-102zM717 512q0 -35 8 -72t22.5 -66.5t33 -48t38.5 -18.5q18 0 36.5 18.5t33 48t24 66.5t9.5 72h-205zM922 922v102h307v-102h-307z" />
<glyph unicode="&#xe7;" d="M0 -764q0 168 64.5 317.5t176 261t260 176t318.5 64.5q168 0 317.5 -64.5t261 -176t176 -261t64.5 -317.5q0 -170 -64.5 -318.5t-176 -260t-261 -176t-317.5 -64.5q-170 0 -318.5 64.5t-260 176t-176 260t-64.5 318.5zM307 -764q0 -106 40 -199.5t109.5 -163t163 -109.5 t199.5 -40q88 0 187 35l-664 664q-35 -99 -35 -187zM633 -287l663 -663q35 98 35 186q0 104 -41 196.5t-111.5 163t-162.5 111.5t-197 41q-88 0 -186 -35zM0 819q0 168 64.5 317.5t176 261t260 176t318.5 64.5q168 0 317.5 -64.5t261 -176t176 -261t64.5 -317.5 q0 -170 -64.5 -318.5t-176 -260t-261 -176t-317.5 -64.5q-170 0 -318.5 64.5t-260 176t-176 260t-64.5 318.5zM102 819q0 -147 56.5 -278t154 -228.5t228.5 -154t278 -56.5q150 0 280 57.5t227 156t153.5 228.5t56.5 275q0 147 -57.5 277.5t-154.5 227.5t-227 154.5 t-278 57.5q-145 0 -275 -56.5t-228.5 -153.5t-156 -227t-57.5 -280zM307 819h103q0 -86 31.5 -160.5t87 -130t130 -87t160.5 -31.5q84 0 159 32.5t130 88t88 130t33 158.5h102q0 -104 -41 -197.5t-110.5 -163t-162.5 -110.5t-198 -41q-106 0 -199.5 40t-163 109.5 t-109.5 163t-40 199.5zM410 973q0 63 45 108t108 45t108.5 -45t45.5 -108t-45 -108.5t-109 -45.5q-63 0 -108 45.5t-45 108.5zM428 1198l217 217l72 -72l-217 -217zM922 973q0 63 45 108t108 45t108.5 -45t45.5 -108t-45 -108.5t-109 -45.5q-63 0 -108 45.5t-45 108.5z M940 1343l72 72l217 -217l-72 -72z" />
<glyph unicode="&#xea;" d="M0 2580q0 168 64.5 317.5t176 261t260 176t318.5 64.5q168 0 317.5 -64.5t261 -176t176 -261t64.5 -317.5q0 -170 -64.5 -318.5t-176 -260t-261 -176t-317.5 -64.5q-170 0 -318.5 64.5t-260 176t-176 260t-64.5 318.5zM102 2580q0 -147 56.5 -278t154 -228.5t228.5 -154 t278 -56.5q150 0 280 57.5t227 156t153.5 228.5t56.5 275q0 147 -57.5 277.5t-154.5 227.5t-227 154.5t-278 57.5q-145 0 -275 -56.5t-228.5 -153.5t-156 -227t-57.5 -280zM307 2683q0 57 15.5 112.5t42 98.5t64.5 69.5t83 26.5t83 -26.5t64.5 -69.5t42 -98.5t15.5 -112.5 h-103q0 33 -8 69.5t-22.5 66t-33 49t-38.5 19.5t-38.5 -19.5t-33 -49t-22.5 -66.5t-8 -69h-103zM512 2273v102h614v-102h-614zM922 2683q0 57 15 112.5t42 98.5t64.5 69.5t82.5 26.5t83 -26.5t64.5 -69.5t42 -98.5t15.5 -112.5h-102q0 33 -8.5 69.5t-22.5 66t-32.5 49 t-39.5 19.5q-20 0 -38.5 -19.5t-33 -49t-22.5 -66.5t-8 -69h-102zM0 819q0 168 64.5 317.5t176 261t260 176t318.5 64.5q168 0 317.5 -64.5t261 -176t176 -261t64.5 -317.5q0 -170 -64.5 -318.5t-176 -260t-261 -176t-317.5 -64.5q-170 0 -318.5 64.5t-260 176t-176 260 t-64.5 318.5zM102 819q0 -147 56.5 -278t154 -228.5t228.5 -154t278 -56.5q150 0 280 57.5t227 156t153.5 228.5t56.5 275q0 147 -57.5 277.5t-154.5 227.5t-227 154.5t-278 57.5q-145 0 -275 -56.5t-228.5 -153.5t-156 -227t-57.5 -280zM410 512v102h819v-102h-819z M410 973q0 63 45 108t108 45t108.5 -45t45.5 -108t-45 -108.5t-109 -45.5q-63 0 -108 45.5t-45 108.5zM428 1198l217 217l72 -72l-217 -217zM922 973q0 63 45 108t108 45t108.5 -45t45.5 -108t-45 -108.5t-109 -45.5q-63 0 -108 45.5t-45 108.5zM940 1343l72 72l217 -217 l-72 -72z" />
<glyph unicode="&#xee;" d="M0 2580q0 168 64.5 317.5t176 261t260 176t318.5 64.5q168 0 317.5 -64.5t261 -176t176 -261t64.5 -317.5q0 -170 -64.5 -318.5t-176 -260t-261 -176t-317.5 -64.5q-170 0 -318.5 64.5t-260 176t-176 260t-64.5 318.5zM102 2580q0 -147 56.5 -278t154 -228.5t228.5 -154 t278 -56.5q150 0 280 57.5t227 156t153.5 228.5t56.5 275q0 147 -57.5 277.5t-154.5 227.5t-227 154.5t-278 57.5q-145 0 -275 -56.5t-228.5 -153.5t-156 -227t-57.5 -280zM307 2683q0 57 15.5 112.5t42 98.5t64.5 69.5t83 26.5t83 -26.5t64.5 -69.5t42 -98.5t15.5 -112.5 h-103q0 33 -8 69.5t-22.5 66t-33 49t-38.5 19.5t-38.5 -19.5t-33 -49t-22.5 -66.5t-8 -69h-103zM512 2273v102h614v-102h-614zM922 2683q0 57 15 112.5t42 98.5t64.5 69.5t82.5 26.5t83 -26.5t64.5 -69.5t42 -98.5t15.5 -112.5h-102q0 33 -8.5 69.5t-22.5 66t-32.5 49 t-39.5 19.5q-20 0 -38.5 -19.5t-33 -49t-22.5 -66.5t-8 -69h-102zM0 819q0 168 64.5 317.5t176 261t260 176t318.5 64.5q168 0 317.5 -64.5t261 -176t176 -261t64.5 -317.5q0 -170 -64.5 -318.5t-176 -260t-261 -176t-317.5 -64.5q-170 0 -318.5 64.5t-260 176t-176 260 t-64.5 318.5zM102 819q0 -147 56.5 -278t154 -228.5t228.5 -154t278 -56.5q203 0 375 105q-121 14 -219 115l14 14q-92 -29 -170 -29q-106 0 -199.5 40t-163 109.5t-109.5 163t-40 199.5h103q0 -86 31.5 -160.5t87 -130t130 -87t160.5 -31.5q84 0 159 32.5t130 88t88 130 t33 158.5h102q0 -123 -51 -223q98 -111 100 -221q156 193 156 444q0 147 -57.5 277.5t-154.5 227.5t-227 154.5t-278 57.5q-145 0 -275 -56.5t-228.5 -153.5t-156 -227t-57.5 -280zM393 1098q0 53 32 90t83 37q84 0 102 -78q35 78 103 78q106 0 106 -119q0 -10 -28.5 -44 t-62.5 -75t-61.5 -84t-27.5 -72q0 -4 1 -6t1 -6q-82 55 -131 91t-74.5 65t-34 56.5t-8.5 66.5zM819 1110q0 51 33 85t84 34q84 0 102 -72q35 72 103 72q47 0 81.5 -33t34.5 -78q0 -41 -24.5 -90t-62 -97t-84 -89t-91.5 -64q-10 20 -15 34.5t-15.5 35t-32 53.5t-66.5 92 q-47 66 -47 117zM1071 373q84 -66 154 -66q55 0 55 55q0 66 -57 142q-60 -74 -152 -131z" />
<glyph unicode="&#xf1;" d="M0 819q0 168 64.5 317.5t176 261t260 176t318.5 64.5q168 0 317.5 -64.5t261 -176t176 -261t64.5 -317.5q0 -170 -64.5 -318.5t-176 -260t-261 -176t-317.5 -64.5q-170 0 -318.5 64.5t-260 176t-176 260t-64.5 318.5zM102 819q0 -297 205 -502q2 104 44 195.5t111.5 159 t162 107.5t194.5 40t194.5 -40t162 -107.5t111.5 -158.5t44 -196q205 205 205 502q0 147 -57.5 277.5t-154.5 227.5t-227 154.5t-278 57.5q-145 0 -275 -56.5t-228.5 -153.5t-156 -227t-57.5 -280zM307 922q0 57 15.5 112.5t42 98.5t64.5 69.5t83 26.5t83 -26.5t64.5 -69.5 t42 -98.5t15.5 -112.5h-103q0 33 -8 69.5t-22.5 66t-33 49t-38.5 19.5t-38.5 -19.5t-33 -49t-22.5 -66.5t-8 -69h-103zM317 307q205 -205 502 -205t502 205h-1004zM422 410h795q-16 66 -55.5 122t-92.5 97t-117.5 64.5t-132.5 23.5t-132 -22.5t-117.5 -63.5t-92.5 -97 t-55 -124zM922 922q0 57 15 112.5t42 98.5t64.5 69.5t82.5 26.5t83 -26.5t64.5 -69.5t42 -98.5t15.5 -112.5h-102q0 33 -8.5 69.5t-22.5 66t-32.5 49t-39.5 19.5q-20 0 -38.5 -19.5t-33 -49t-22.5 -66.5t-8 -69h-102z" />
<glyph unicode="&#xf4;" d="M0 2580q0 168 64.5 317.5t176 261t260 176t318.5 64.5q168 0 317.5 -64.5t261 -176t176 -261t64.5 -317.5q0 -170 -64.5 -318.5t-176 -260t-261 -176t-317.5 -64.5q-170 0 -318.5 64.5t-260 176t-176 260t-64.5 318.5zM102 2580q0 -147 56.5 -278t154 -228.5t228.5 -154 t278 -56.5q150 0 280 57.5t227 156t153.5 228.5t56.5 275q0 147 -57.5 277.5t-154.5 227.5t-227 154.5t-278 57.5q-145 0 -275 -56.5t-228.5 -153.5t-156 -227t-57.5 -280zM307 2683q0 57 15.5 112.5t42 98.5t64.5 69.5t83 26.5t83 -26.5t64.5 -69.5t42 -98.5t15.5 -112.5 h-103q0 33 -8 69.5t-22.5 66t-33 49t-38.5 19.5t-38.5 -19.5t-33 -49t-22.5 -66.5t-8 -69h-103zM512 2273v102h614v-102h-614zM922 2683q0 57 15 112.5t42 98.5t64.5 69.5t82.5 26.5t83 -26.5t64.5 -69.5t42 -98.5t15.5 -112.5h-102q0 33 -8.5 69.5t-22.5 66t-32.5 49 t-39.5 19.5q-20 0 -38.5 -19.5t-33 -49t-22.5 -66.5t-8 -69h-102zM0 819q0 168 64.5 317.5t176 261t260 176t318.5 64.5q168 0 317.5 -64.5t261 -176t176 -261t64.5 -317.5q0 -170 -64.5 -318.5t-176 -260t-261 -176t-317.5 -64.5q-170 0 -318.5 64.5t-260 176t-176 260 t-64.5 318.5zM102 819q0 -147 56.5 -278t154 -228.5t228.5 -154t278 -56.5q150 0 280 57.5t227 156t153.5 228.5t56.5 275q0 147 -57.5 277.5t-154.5 227.5t-227 154.5t-278 57.5q-145 0 -275 -56.5t-228.5 -153.5t-156 -227t-57.5 -280zM410 973q0 63 45 108t108 45 t108.5 -45t45.5 -108t-45 -108.5t-109 -45.5q-63 0 -108 45.5t-45 108.5zM428 1198l217 217l72 -72l-217 -217zM614 512q0 43 15.5 80t43 64.5t65.5 44t81 16.5q86 0 145.5 -59.5t59.5 -145.5q0 -43 -16.5 -81t-44 -65.5t-64.5 -43t-80 -15.5q-88 0 -146.5 58.5t-58.5 146.5 zM922 973q0 63 45 108t108 45t108.5 -45t45.5 -108t-45 -108.5t-109 -45.5q-63 0 -108 45.5t-45 108.5zM940 1343l72 72l217 -217l-72 -72z" />
<glyph unicode="&#xf5;" d="M0 819q0 168 64.5 317.5t176 261t260 176t318.5 64.5q168 0 317.5 -64.5t261 -176t176 -261t64.5 -317.5q0 -170 -64.5 -318.5t-176 -260t-261 -176t-317.5 -64.5q-170 0 -318.5 64.5t-260 176t-176 260t-64.5 318.5zM102 819q0 -147 56.5 -278t154 -228.5t228.5 -154 t278 -56.5q150 0 280 57.5t227 156t153.5 228.5t56.5 275q0 147 -57.5 277.5t-154.5 227.5t-227 154.5t-278 57.5q-145 0 -275 -56.5t-228.5 -153.5t-156 -227t-57.5 -280zM410 973q0 63 45 108t108 45t108.5 -45t45.5 -108t-45 -108.5t-109 -45.5q-63 0 -108 45.5 t-45 108.5zM428 1198l217 217l72 -72l-217 -217zM614 512q0 43 15.5 80t43 64.5t65.5 44t81 16.5q86 0 145.5 -59.5t59.5 -145.5q0 -43 -16.5 -81t-44 -65.5t-64.5 -43t-80 -15.5q-88 0 -146.5 58.5t-58.5 146.5zM922 973q0 63 45 108t108 45t108.5 -45t45.5 -108 t-45 -108.5t-109 -45.5q-63 0 -108 45.5t-45 108.5zM940 1343l72 72l217 -217l-72 -72z" />
<glyph unicode="&#xfb;" d="M0 2580q0 168 64.5 317.5t176 261t260 176t318.5 64.5q168 0 317.5 -64.5t261 -176t176 -261t64.5 -317.5q0 -170 -64.5 -318.5t-176 -260t-261 -176t-317.5 -64.5q-170 0 -318.5 64.5t-260 176t-176 260t-64.5 318.5zM102 2580q0 -147 56.5 -278t154 -228.5t228.5 -154 t278 -56.5q150 0 280 57.5t227 156t153.5 228.5t56.5 275q0 147 -57.5 277.5t-154.5 227.5t-227 154.5t-278 57.5q-145 0 -275 -56.5t-228.5 -153.5t-156 -227t-57.5 -280zM307 2683q0 57 15.5 112.5t42 98.5t64.5 69.5t83 26.5t83 -26.5t64.5 -69.5t42 -98.5t15.5 -112.5 h-103q0 33 -8 69.5t-22.5 66t-33 49t-38.5 19.5t-38.5 -19.5t-33 -49t-22.5 -66.5t-8 -69h-103zM512 2273v102h614v-102h-614zM922 2683q0 57 15 112.5t42 98.5t64.5 69.5t82.5 26.5t83 -26.5t64.5 -69.5t42 -98.5t15.5 -112.5h-102q0 33 -8.5 69.5t-22.5 66t-32.5 49 t-39.5 19.5q-20 0 -38.5 -19.5t-33 -49t-22.5 -66.5t-8 -69h-102zM0 819q0 168 64.5 317.5t176 261t260 176t318.5 64.5q168 0 317.5 -64.5t261 -176t176 -261t64.5 -317.5q0 -170 -64.5 -318.5t-176 -260t-261 -176t-317.5 -64.5q-170 0 -318.5 64.5t-260 176t-176 260 t-64.5 318.5zM102 819q0 -147 56.5 -278t154 -228.5t228.5 -154t278 -56.5q150 0 280 57.5t227 156t153.5 228.5t56.5 275q0 147 -57.5 277.5t-154.5 227.5t-227 154.5t-278 57.5q-145 0 -275 -56.5t-228.5 -153.5t-156 -227t-57.5 -280zM410 973q0 61 44 106t105 47 l-131 134l72 71l217 -217l-39 -39q39 -45 39 -102q0 -63 -45 -108.5t-109 -45.5q-63 0 -108 45.5t-45 108.5zM717 410q0 43 29.5 72.5t72.5 29.5t73 -29.5t30 -72.5t-30 -73t-73 -30t-72.5 30t-29.5 73zM922 973q0 63 45 108t108 45t108.5 -45t45.5 -108t-45 -108.5 t-109 -45.5q-63 0 -108 45.5t-45 108.5zM922 1229v102h307v-102h-307z" />
<glyph unicode="&#x152;" horiz-adv-x="3559" d="M1780 819q0 168 64.5 317.5t176 261t260 176t318.5 64.5q168 0 317.5 -64.5t261 -176t176 -261t64.5 -317.5q0 -170 -64.5 -318.5t-176 -260t-261 -176t-317.5 -64.5q-170 0 -318.5 64.5t-260 176t-176 260t-64.5 318.5zM1882 819q0 -147 56.5 -278t154 -228.5 t228.5 -154t278 -56.5q150 0 280 57.5t227 156t153.5 228.5t56.5 275q0 147 -57.5 277.5t-154.5 227.5t-227 154.5t-278 57.5q-145 0 -275 -56.5t-228.5 -153.5t-156 -227t-57.5 -280zM2190 512v102h819v-102q0 -57 -15.5 -112.5t-42 -98.5t-64.5 -69.5t-83 -26.5t-83 26.5 t-64.5 69.5t-42 98.5t-15.5 112.5h-409zM2190 973q0 63 45 108t108 45t108.5 -45t45.5 -108t-45 -108.5t-109 -45.5q-63 0 -108 45.5t-45 108.5zM2702 512q0 -35 8 -72t22.5 -66.5t33 -48t38.5 -18.5q18 0 36.5 18.5t33 48t23.5 66.5t9 72h-204zM2702 973q0 63 45 108 t108 45t108.5 -45t45.5 -108t-45 -108.5t-109 -45.5q-63 0 -108 45.5t-45 108.5zM0 819q0 168 64.5 317.5t176 261t260 176t318.5 64.5q168 0 317.5 -64.5t261 -176t176 -261t64.5 -317.5q0 -170 -64.5 -318.5t-176 -260t-261 -176t-317.5 -64.5q-170 0 -318.5 64.5 t-260 176t-176 260t-64.5 318.5zM102 819q0 -147 56.5 -278t154 -228.5t228.5 -154t278 -56.5q150 0 280 57.5t227 156t153.5 228.5t56.5 275q0 147 -57.5 277.5t-154.5 227.5t-227 154.5t-278 57.5q-145 0 -275 -56.5t-228.5 -153.5t-156 -227t-57.5 -280zM307 819h103 q0 -86 31.5 -160.5t87 -130t130 -87t160.5 -31.5q84 0 159 32.5t130 88t88 130t33 158.5h102q0 -104 -41 -197.5t-110.5 -163t-162.5 -110.5t-198 -41q-106 0 -199.5 40t-163 109.5t-109.5 163t-40 199.5zM410 922v102h307v-102h-307zM410 1260l71 71l217 -217l-71 -72z M922 973q0 57 39 102l-39 39l217 217l71 -71l-131 -134q61 -2 105.5 -47t44.5 -106q0 -63 -45 -108.5t-109 -45.5q-63 0 -108 45.5t-45 108.5z" />
<glyph unicode="&#x153;" horiz-adv-x="3555" d="M1778 819q0 168 64.5 317.5t176 261t260 176t318.5 64.5q168 0 317.5 -64.5t261 -176t176 -261t64.5 -317.5q0 -170 -64.5 -318.5t-176 -260t-261 -176t-317.5 -64.5q-170 0 -318.5 64.5t-260 176t-176 260t-64.5 318.5zM1880 819q0 -147 56.5 -278t154 -228.5 t228.5 -154t278 -56.5q150 0 280 57.5t227 156t153.5 228.5t56.5 275q0 147 -57.5 277.5t-154.5 227.5t-227 154.5t-278 57.5q-145 0 -275 -56.5t-228.5 -153.5t-156 -227t-57.5 -280zM2188 512v102h819v-102h-819zM2188 973q0 63 45 108t108 45t108.5 -45t45.5 -108 t-45 -108.5t-109 -45.5q-63 0 -108 45.5t-45 108.5zM2206 1198l217 217l72 -72l-217 -217zM2700 973q0 63 45 108t108 45t108.5 -45t45.5 -108t-45 -108.5t-109 -45.5q-63 0 -108 45.5t-45 108.5zM2718 1343l72 72l217 -217l-72 -72zM0 819q0 168 64.5 317.5t176 261 t260 176t318.5 64.5q168 0 317.5 -64.5t261 -176t176 -261t64.5 -317.5q0 -170 -64.5 -318.5t-176 -260t-261 -176t-317.5 -64.5q-170 0 -318.5 64.5t-260 176t-176 260t-64.5 318.5zM102 819q0 -147 56.5 -278t154 -228.5t228.5 -154t278 -56.5q150 0 280 57.5t227 156 t153.5 228.5t56.5 275q0 147 -57.5 277.5t-154.5 227.5t-227 154.5t-278 57.5q-145 0 -275 -56.5t-228.5 -153.5t-156 -227t-57.5 -280zM410 973q0 63 45 108t108 45t108.5 -45t45.5 -108t-45 -108.5t-109 -45.5q-63 0 -108 45.5t-45 108.5zM428 1198l217 217l72 -72 l-217 -217zM614 512q0 43 15.5 80t43 64.5t65.5 44t81 16.5q86 0 145.5 -59.5t59.5 -145.5q0 -43 -16.5 -81t-44 -65.5t-64.5 -43t-80 -15.5q-88 0 -146.5 58.5t-58.5 146.5zM922 973q0 63 45 108t108 45t108.5 -45t45.5 -108t-45 -108.5t-109 -45.5q-63 0 -108 45.5 t-45 108.5zM940 1343l72 72l217 -217l-72 -72z" />
<glyph unicode="&#x2c6;" d="M0 819q0 168 64.5 317.5t176 261t260 176t318.5 64.5q168 0 317.5 -64.5t261 -176t176 -261t64.5 -317.5q0 -170 -64.5 -318.5t-176 -260t-261 -176t-317.5 -64.5q-170 0 -318.5 64.5t-260 176t-176 260t-64.5 318.5zM102 819q0 -147 56.5 -278t154 -228.5t228.5 -154 t278 -56.5q150 0 280 57.5t227 156t153.5 228.5t56.5 275q0 147 -57.5 277.5t-154.5 227.5t-227 154.5t-278 57.5q-145 0 -275 -56.5t-228.5 -153.5t-156 -227t-57.5 -280zM307 922q0 57 15.5 112.5t42 98.5t64.5 69.5t83 26.5t83 -26.5t64.5 -69.5t42 -98.5t15.5 -112.5 h-103q0 33 -8 69.5t-22.5 66t-33 49t-38.5 19.5t-38.5 -19.5t-33 -49t-22.5 -66.5t-8 -69h-103zM512 512v102h614v-102h-614zM922 922q0 57 15 112.5t42 98.5t64.5 69.5t82.5 26.5t83 -26.5t64.5 -69.5t42 -98.5t15.5 -112.5h-102q0 33 -8.5 69.5t-22.5 66t-32.5 49 t-39.5 19.5q-20 0 -38.5 -19.5t-33 -49t-22.5 -66.5t-8 -69h-102z" />
<glyph unicode="&#x2000;" horiz-adv-x="1699" />
<glyph unicode="&#x2001;" horiz-adv-x="3399" />
<glyph unicode="&#x2002;" horiz-adv-x="1699" />
<glyph unicode="&#x2003;" horiz-adv-x="3399" />
<glyph unicode="&#x2004;" horiz-adv-x="1132" />
<glyph unicode="&#x2005;" horiz-adv-x="849" />
<glyph unicode="&#x2006;" horiz-adv-x="565" />
<glyph unicode="&#x2007;" horiz-adv-x="565" />
<glyph unicode="&#x2008;" horiz-adv-x="423" />
<glyph unicode="&#x2009;" horiz-adv-x="679" />
<glyph unicode="&#x200a;" horiz-adv-x="188" />
<glyph unicode="&#x2013;" horiz-adv-x="1024" d="M205 512v205h614v-205h-614z" />
<glyph unicode="&#x2014;" horiz-adv-x="2048" d="M205 512v205h1638v-205h-1638z" />
<glyph unicode="&#x2026;" horiz-adv-x="5332" d="M3555 819q0 168 64.5 317.5t176 261t260 176t318.5 64.5q168 0 317.5 -64.5t261 -176t176 -261t64.5 -317.5q0 -170 -64.5 -318.5t-176 -260t-261 -176t-317.5 -64.5q-170 0 -318.5 64.5t-260 176t-176 260t-64.5 318.5zM3862 819q0 -106 40 -199.5t109.5 -163 t163 -109.5t199.5 -40q104 0 197.5 41t163 110.5t110.5 163t41 197.5t-41 196.5t-111.5 163t-162.5 111.5t-197 41q-104 0 -197.5 -41t-163 -110.5t-110.5 -163t-41 -197.5zM4169 819q0 43 15.5 80t43 64.5t65.5 44t81 16.5q86 0 145.5 -59.5t59.5 -145.5q0 -43 -16.5 -81 t-44 -65.5t-64.5 -43t-80 -15.5q-88 0 -146.5 58.5t-58.5 146.5zM1778 819q0 168 64.5 317.5t176 261t260 176t318.5 64.5q168 0 317.5 -64.5t261 -176t176 -261t64.5 -317.5q0 -170 -64.5 -318.5t-176 -260t-261 -176t-317.5 -64.5q-170 0 -318.5 64.5t-260 176t-176 260 t-64.5 318.5zM2085 819q0 -106 40 -199.5t109.5 -163t163 -109.5t199.5 -40q104 0 197.5 41t163 110.5t110.5 163t41 197.5t-41 196.5t-111.5 163t-162.5 111.5t-197 41q-104 0 -197.5 -41t-163 -110.5t-110.5 -163t-41 -197.5zM2392 819q0 43 15.5 80t43 64.5t65.5 44 t81 16.5q86 0 145.5 -59.5t59.5 -145.5q0 -43 -16.5 -81t-44 -65.5t-64.5 -43t-80 -15.5q-88 0 -146.5 58.5t-58.5 146.5zM0 819q0 168 64.5 317.5t176 261t260 176t318.5 64.5q168 0 317.5 -64.5t261 -176t176 -261t64.5 -317.5q0 -170 -64.5 -318.5t-176 -260t-261 -176 t-317.5 -64.5q-170 0 -318.5 64.5t-260 176t-176 260t-64.5 318.5zM307 819q0 -106 40 -199.5t109.5 -163t163 -109.5t199.5 -40q104 0 197.5 41t163 110.5t110.5 163t41 197.5t-41 196.5t-111.5 163t-162.5 111.5t-197 41q-104 0 -197.5 -41t-163 -110.5t-110.5 -163 t-41 -197.5zM614 819q0 43 15.5 80t43 64.5t65.5 44t81 16.5q86 0 145.5 -59.5t59.5 -145.5q0 -43 -16.5 -81t-44 -65.5t-64.5 -43t-80 -15.5q-88 0 -146.5 58.5t-58.5 146.5z" />
<glyph unicode="&#x202f;" horiz-adv-x="679" />
<glyph unicode="&#x205f;" horiz-adv-x="849" />
<glyph unicode="&#x2122;" horiz-adv-x="3559" d="M1780 819q0 168 64.5 317.5t176 261t260 176t318.5 64.5q168 0 317.5 -64.5t261 -176t176 -261t64.5 -317.5q0 -170 -64.5 -318.5t-176 -260t-261 -176t-317.5 -64.5q-170 0 -318.5 64.5t-260 176t-176 260t-64.5 318.5zM1882 819q0 -147 56.5 -278t154 -228.5 t228.5 -154t278 -56.5q150 0 280 57.5t227 156t153.5 228.5t56.5 275q0 147 -57.5 277.5t-154.5 227.5t-227 154.5t-278 57.5q-145 0 -275 -56.5t-228.5 -153.5t-156 -227t-57.5 -280zM2190 922v102h307v-102h-307zM2292 512v102h614v-102h-102q0 -57 -15.5 -112.5 t-42 -98.5t-64.5 -69.5t-83 -26.5t-83 26.5t-64.5 69.5t-42 98.5t-15.5 112.5h-102zM2497 512q0 -35 8 -72t22.5 -66.5t33 -48t38.5 -18.5q18 0 36.5 18.5t33 48t24 66.5t9.5 72h-205zM2702 973q0 63 45 108t108 45t108.5 -45t45.5 -108t-45 -108.5t-109 -45.5 q-63 0 -108 45.5t-45 108.5zM0 819q0 168 64.5 317.5t176 261t260 176t318.5 64.5q168 0 317.5 -64.5t261 -176t176 -261t64.5 -317.5q0 -170 -64.5 -318.5t-176 -260t-261 -176t-317.5 -64.5q-170 0 -318.5 64.5t-260 176t-176 260t-64.5 318.5zM102 819q0 -147 56.5 -278 t154 -228.5t228.5 -154t278 -56.5q150 0 280 57.5t227 156t153.5 228.5t56.5 275q0 147 -57.5 277.5t-154.5 227.5t-227 154.5t-278 57.5q-145 0 -275 -56.5t-228.5 -153.5t-156 -227t-57.5 -280zM410 973q0 57 38.5 101t96.5 50l-117 119l72 72l217 -217l-31 -33 q31 -41 31 -92q0 -63 -45 -108.5t-109 -45.5q-63 0 -108 45.5t-45 108.5zM512 512v102h614v-102h-102q0 -57 -15.5 -112.5t-42 -98.5t-64.5 -69.5t-83 -26.5t-83 26.5t-64.5 69.5t-42 98.5t-15.5 112.5h-102zM717 512q0 -35 8 -72t22.5 -66.5t33 -48t38.5 -18.5 q18 0 36.5 18.5t33 48t24 66.5t9.5 72h-205zM922 973q0 63 47 110l-29 31l217 217l72 -71l-133 -136q55 -6 94 -50t39 -101q0 -63 -45 -108.5t-109 -45.5q-63 0 -108 45.5t-45 108.5z" />
<glyph unicode="&#xe000;" horiz-adv-x="1945" d="M0 1945h1945v-1945h-1945v1945z" />
<glyph unicode="&#xfb01;" horiz-adv-x="3555" d="M1778 819q0 168 64.5 317.5t176 261t260 176t318.5 64.5q168 0 317.5 -64.5t261 -176t176 -261t64.5 -317.5q0 -170 -64.5 -318.5t-176 -260t-261 -176t-317.5 -64.5q-170 0 -318.5 64.5t-260 176t-176 260t-64.5 318.5zM1880 819q0 -147 56.5 -278t154 -228.5 t228.5 -154t278 -56.5q203 0 375 105q-121 14 -219 115l14 14q-92 -29 -170 -29q-106 0 -199.5 40t-163 109.5t-109.5 163t-40 199.5h103q0 -86 31.5 -160.5t87 -130t130 -87t160.5 -31.5q84 0 159 32.5t130 88t88 130t33 158.5h102q0 -123 -51 -223q98 -111 100 -221 q156 193 156 444q0 147 -57.5 277.5t-154.5 227.5t-227 154.5t-278 57.5q-145 0 -275 -56.5t-228.5 -153.5t-156 -227t-57.5 -280zM2171 1098q0 53 32 90t83 37q84 0 102 -78q35 78 103 78q106 0 106 -119q0 -10 -28.5 -44t-62.5 -75t-61.5 -84t-27.5 -72q0 -4 1 -6t1 -6 q-82 55 -131 91t-74.5 65t-34 56.5t-8.5 66.5zM2597 1110q0 51 33 85t84 34q84 0 102 -72q35 72 103 72q47 0 81.5 -33t34.5 -78q0 -41 -24.5 -90t-62 -97t-84 -89t-91.5 -64q-10 20 -15 34.5t-15.5 35t-32 53.5t-66.5 92q-47 66 -47 117zM2849 373q84 -66 154 -66 q55 0 55 55q0 66 -57 142q-60 -74 -152 -131zM0 819q0 168 64.5 317.5t176 261t260 176t318.5 64.5q168 0 317.5 -64.5t261 -176t176 -261t64.5 -317.5q0 -170 -64.5 -318.5t-176 -260t-261 -176t-317.5 -64.5q-170 0 -318.5 64.5t-260 176t-176 260t-64.5 318.5zM102 819 q0 -147 56.5 -278t154 -228.5t228.5 -154t278 -56.5q150 0 280 57.5t227 156t153.5 228.5t56.5 275q0 147 -57.5 277.5t-154.5 227.5t-227 154.5t-278 57.5q-145 0 -275 -56.5t-228.5 -153.5t-156 -227t-57.5 -280zM307 717h1024q0 -104 -41 -197.5t-110.5 -163 t-162.5 -110.5t-198 -41q-106 0 -199.5 40t-163 109.5t-109.5 163t-40 199.5zM397 991q0 61 46 107.5t108 46.5q63 0 108.5 -46t45.5 -108q0 -63 -45.5 -108t-108.5 -45q-61 0 -107.5 45t-46.5 108zM416 1217l217 217l72 -72l-218 -217zM422 614q16 -68 55 -124t92.5 -97 t118 -63.5t131.5 -22.5q68 0 132.5 22.5t117.5 63.5t92 97.5t56 123.5h-795zM909 991q0 61 46 107.5t108 46.5q63 0 108.5 -46t45.5 -108q0 -63 -45.5 -108t-108.5 -45q-61 0 -107.5 45t-46.5 108zM928 1362l71 72l218 -217l-72 -72z" />
<glyph unicode="&#xfb02;" horiz-adv-x="3555" d="M1778 819q0 168 64.5 317.5t176 261t260 176t318.5 64.5q168 0 317.5 -64.5t261 -176t176 -261t64.5 -317.5q0 -170 -64.5 -318.5t-176 -260t-261 -176t-317.5 -64.5q-170 0 -318.5 64.5t-260 176t-176 260t-64.5 318.5zM1880 819q0 -147 56.5 -278t154 -228.5 t228.5 -154t278 -56.5q150 0 280 57.5t227 156t153.5 228.5t56.5 275q0 147 -57.5 277.5t-154.5 227.5t-227 154.5t-278 57.5q-145 0 -275 -56.5t-228.5 -153.5t-156 -227t-57.5 -280zM2085 922q0 57 15.5 112.5t42 98.5t64.5 69.5t83 26.5t83 -26.5t64.5 -69.5t42 -98.5 t15.5 -112.5h-103q0 33 -8 69.5t-22.5 66t-33 49t-38.5 19.5t-38.5 -19.5t-33 -49t-22.5 -66.5t-8 -69h-103zM2290 512v102h614v-102h-614zM2700 922q0 57 15 112.5t42 98.5t64.5 69.5t82.5 26.5t83 -26.5t64.5 -69.5t42 -98.5t15.5 -112.5h-102q0 33 -8.5 69.5t-22.5 66 t-32.5 49t-39.5 19.5q-20 0 -38.5 -19.5t-33 -49t-22.5 -66.5t-8 -69h-102zM0 819q0 168 64.5 317.5t176 261t260 176t318.5 64.5q168 0 317.5 -64.5t261 -176t176 -261t64.5 -317.5q0 -170 -64.5 -318.5t-176 -260t-261 -176t-317.5 -64.5q-170 0 -318.5 64.5t-260 176 t-176 260t-64.5 318.5zM102 819q0 -147 56.5 -278t154 -228.5t228.5 -154t278 -56.5q150 0 280 57.5t227 156t153.5 228.5t56.5 275q0 147 -57.5 277.5t-154.5 227.5t-227 154.5t-278 57.5q-145 0 -275 -56.5t-228.5 -153.5t-156 -227t-57.5 -280zM307 717h1024 q0 -104 -41 -197.5t-110.5 -163t-162.5 -110.5t-198 -41q-106 0 -199.5 40t-163 109.5t-109.5 163t-40 199.5zM397 991q0 61 46 107.5t108 46.5q63 0 108.5 -46t45.5 -108q0 -63 -45.5 -108t-108.5 -45q-61 0 -107.5 45t-46.5 108zM416 1217l217 217l72 -72l-218 -217z M422 614q16 -68 55 -124t92.5 -97t118 -63.5t131.5 -22.5q68 0 132.5 22.5t117.5 63.5t92 97.5t56 123.5h-795zM909 991q0 61 46 107.5t108 46.5q63 0 108.5 -46t45.5 -108q0 -63 -45.5 -108t-108.5 -45q-61 0 -107.5 45t-46.5 108zM928 1362l71 72l218 -217l-72 -72z" />
<glyph unicode="&#xfb03;" horiz-adv-x="5332" d="M3555 819q0 168 64.5 317.5t176 261t260 176t318.5 64.5q168 0 317.5 -64.5t261 -176t176 -261t64.5 -317.5q0 -170 -64.5 -318.5t-176 -260t-261 -176t-317.5 -64.5q-170 0 -318.5 64.5t-260 176t-176 260t-64.5 318.5zM3657 819q0 -147 56.5 -278t154 -228.5 t228.5 -154t278 -56.5q203 0 375 105q-121 14 -219 115l14 14q-92 -29 -170 -29q-106 0 -199.5 40t-163 109.5t-109.5 163t-40 199.5h103q0 -86 31.5 -160.5t87 -130t130 -87t160.5 -31.5q84 0 159 32.5t130 88t88 130t33 158.5h102q0 -123 -51 -223q98 -111 100 -221 q156 193 156 444q0 147 -57.5 277.5t-154.5 227.5t-227 154.5t-278 57.5q-145 0 -275 -56.5t-228.5 -153.5t-156 -227t-57.5 -280zM3948 1098q0 53 32 90t83 37q84 0 102 -78q35 78 103 78q106 0 106 -119q0 -10 -28.5 -44t-62.5 -75t-61.5 -84t-27.5 -72q0 -4 1 -6t1 -6 q-82 55 -131 91t-74.5 65t-34 56.5t-8.5 66.5zM4374 1110q0 51 33 85t84 34q84 0 102 -72q35 72 103 72q47 0 81.5 -33t34.5 -78q0 -41 -24.5 -90t-62 -97t-84 -89t-91.5 -64q-10 20 -15 34.5t-15.5 35t-32 53.5t-66.5 92q-47 66 -47 117zM4626 373q84 -66 154 -66 q55 0 55 55q0 66 -57 142q-60 -74 -152 -131zM1778 819q0 168 64.5 317.5t176 261t260 176t318.5 64.5q168 0 317.5 -64.5t261 -176t176 -261t64.5 -317.5q0 -170 -64.5 -318.5t-176 -260t-261 -176t-317.5 -64.5q-170 0 -318.5 64.5t-260 176t-176 260t-64.5 318.5z M1880 819q0 -147 56.5 -278t154 -228.5t228.5 -154t278 -56.5q150 0 280 57.5t227 156t153.5 228.5t56.5 275q0 147 -57.5 277.5t-154.5 227.5t-227 154.5t-278 57.5q-145 0 -275 -56.5t-228.5 -153.5t-156 -227t-57.5 -280zM2085 717h1024q0 -104 -41 -197.5t-110.5 -163 t-162.5 -110.5t-198 -41q-106 0 -199.5 40t-163 109.5t-109.5 163t-40 199.5zM2175 991q0 61 46 107.5t108 46.5q63 0 108.5 -46t45.5 -108q0 -63 -45.5 -108t-108.5 -45q-61 0 -107.5 45t-46.5 108zM2194 1217l217 217l72 -72l-218 -217zM2200 614q16 -68 55 -124t92.5 -97 t118 -63.5t131.5 -22.5q68 0 132.5 22.5t117.5 63.5t92 97.5t56 123.5h-795zM2687 991q0 61 46 107.5t108 46.5q63 0 108.5 -46t45.5 -108q0 -63 -45.5 -108t-108.5 -45q-61 0 -107.5 45t-46.5 108zM2706 1362l71 72l218 -217l-72 -72zM0 819q0 168 64.5 317.5t176 261 t260 176t318.5 64.5q168 0 317.5 -64.5t261 -176t176 -261t64.5 -317.5q0 -170 -64.5 -318.5t-176 -260t-261 -176t-317.5 -64.5q-170 0 -318.5 64.5t-260 176t-176 260t-64.5 318.5zM102 819q0 -147 56.5 -278t154 -228.5t228.5 -154t278 -56.5q150 0 280 57.5t227 156 t153.5 228.5t56.5 275q0 147 -57.5 277.5t-154.5 227.5t-227 154.5t-278 57.5q-145 0 -275 -56.5t-228.5 -153.5t-156 -227t-57.5 -280zM307 717h1024q0 -104 -41 -197.5t-110.5 -163t-162.5 -110.5t-198 -41q-106 0 -199.5 40t-163 109.5t-109.5 163t-40 199.5zM397 991 q0 61 46 107.5t108 46.5q63 0 108.5 -46t45.5 -108q0 -63 -45.5 -108t-108.5 -45q-61 0 -107.5 45t-46.5 108zM416 1217l217 217l72 -72l-218 -217zM422 614q16 -68 55 -124t92.5 -97t118 -63.5t131.5 -22.5q68 0 132.5 22.5t117.5 63.5t92 97.5t56 123.5h-795zM909 991 q0 61 46 107.5t108 46.5q63 0 108.5 -46t45.5 -108q0 -63 -45.5 -108t-108.5 -45q-61 0 -107.5 45t-46.5 108zM928 1362l71 72l218 -217l-72 -72z" />
<glyph unicode="&#xfb04;" horiz-adv-x="5332" d="M3555 819q0 168 64.5 317.5t176 261t260 176t318.5 64.5q168 0 317.5 -64.5t261 -176t176 -261t64.5 -317.5q0 -170 -64.5 -318.5t-176 -260t-261 -176t-317.5 -64.5q-170 0 -318.5 64.5t-260 176t-176 260t-64.5 318.5zM3657 819q0 -147 56.5 -278t154 -228.5 t228.5 -154t278 -56.5q150 0 280 57.5t227 156t153.5 228.5t56.5 275q0 147 -57.5 277.5t-154.5 227.5t-227 154.5t-278 57.5q-145 0 -275 -56.5t-228.5 -153.5t-156 -227t-57.5 -280zM3862 922q0 57 15.5 112.5t42 98.5t64.5 69.5t83 26.5t83 -26.5t64.5 -69.5t42 -98.5 t15.5 -112.5h-103q0 33 -8 69.5t-22.5 66t-33 49t-38.5 19.5t-38.5 -19.5t-33 -49t-22.5 -66.5t-8 -69h-103zM4067 512v102h614v-102h-614zM4477 922q0 57 15 112.5t42 98.5t64.5 69.5t82.5 26.5t83 -26.5t64.5 -69.5t42 -98.5t15.5 -112.5h-102q0 33 -8.5 69.5t-22.5 66 t-32.5 49t-39.5 19.5q-20 0 -38.5 -19.5t-33 -49t-22.5 -66.5t-8 -69h-102zM1778 819q0 168 64.5 317.5t176 261t260 176t318.5 64.5q168 0 317.5 -64.5t261 -176t176 -261t64.5 -317.5q0 -170 -64.5 -318.5t-176 -260t-261 -176t-317.5 -64.5q-170 0 -318.5 64.5t-260 176 t-176 260t-64.5 318.5zM1880 819q0 -147 56.5 -278t154 -228.5t228.5 -154t278 -56.5q150 0 280 57.5t227 156t153.5 228.5t56.5 275q0 147 -57.5 277.5t-154.5 227.5t-227 154.5t-278 57.5q-145 0 -275 -56.5t-228.5 -153.5t-156 -227t-57.5 -280zM2085 717h1024 q0 -104 -41 -197.5t-110.5 -163t-162.5 -110.5t-198 -41q-106 0 -199.5 40t-163 109.5t-109.5 163t-40 199.5zM2175 991q0 61 46 107.5t108 46.5q63 0 108.5 -46t45.5 -108q0 -63 -45.5 -108t-108.5 -45q-61 0 -107.5 45t-46.5 108zM2194 1217l217 217l72 -72l-218 -217z M2200 614q16 -68 55 -124t92.5 -97t118 -63.5t131.5 -22.5q68 0 132.5 22.5t117.5 63.5t92 97.5t56 123.5h-795zM2687 991q0 61 46 107.5t108 46.5q63 0 108.5 -46t45.5 -108q0 -63 -45.5 -108t-108.5 -45q-61 0 -107.5 45t-46.5 108zM2706 1362l71 72l218 -217l-72 -72z M0 819q0 168 64.5 317.5t176 261t260 176t318.5 64.5q168 0 317.5 -64.5t261 -176t176 -261t64.5 -317.5q0 -170 -64.5 -318.5t-176 -260t-261 -176t-317.5 -64.5q-170 0 -318.5 64.5t-260 176t-176 260t-64.5 318.5zM102 819q0 -147 56.5 -278t154 -228.5t228.5 -154 t278 -56.5q150 0 280 57.5t227 156t153.5 228.5t56.5 275q0 147 -57.5 277.5t-154.5 227.5t-227 154.5t-278 57.5q-145 0 -275 -56.5t-228.5 -153.5t-156 -227t-57.5 -280zM307 717h1024q0 -104 -41 -197.5t-110.5 -163t-162.5 -110.5t-198 -41q-106 0 -199.5 40t-163 109.5 t-109.5 163t-40 199.5zM397 991q0 61 46 107.5t108 46.5q63 0 108.5 -46t45.5 -108q0 -63 -45.5 -108t-108.5 -45q-61 0 -107.5 45t-46.5 108zM416 1217l217 217l72 -72l-218 -217zM422 614q16 -68 55 -124t92.5 -97t118 -63.5t131.5 -22.5q68 0 132.5 22.5t117.5 63.5 t92 97.5t56 123.5h-795zM909 991q0 61 46 107.5t108 46.5q63 0 108.5 -46t45.5 -108q0 -63 -45.5 -108t-108.5 -45q-61 0 -107.5 45t-46.5 108zM928 1362l71 72l218 -217l-72 -72z" />
</font>
</defs>
</svg>
